<svg xmlns="http://www.w3.org/2000/svg" xmlns:xlink="http://www.w3.org/1999/xlink" viewBox="0 0 471 212"><defs><style>.cls-1{fill:url(#linear-gradient);}.cls-2{fill:url(#linear-gradient-2);}.cls-3{fill:url(#linear-gradient-3);}.cls-4{fill:url(#linear-gradient-4);}.cls-5{fill:url(#linear-gradient-5);}.cls-6{fill:url(#linear-gradient-6);}.cls-7{fill:url(#linear-gradient-7);}.cls-8{fill:url(#linear-gradient-8);}.cls-9{fill:url(#linear-gradient-9);}</style><linearGradient id="linear-gradient" x1="187" y1="211.42" x2="187" y2="19.42" gradientUnits="userSpaceOnUse"><stop offset="0" stop-color="#848097"/><stop offset="1" stop-color="#b7abba"/></linearGradient><linearGradient id="linear-gradient-2" x1="116.5" y1="211.36" x2="116.5" y2="0.36" xlink:href="#linear-gradient"/><linearGradient id="linear-gradient-3" x1="47" y1="211.47" x2="47" y2="36.47" xlink:href="#linear-gradient"/><linearGradient id="linear-gradient-4" x1="875.5" y1="211.43" x2="875.5" y2="22.43" gradientTransform="matrix(-1, 0, 0, 1, 1148, 0)" xlink:href="#linear-gradient"/><linearGradient id="linear-gradient-5" x1="342" y1="211.36" x2="342" y2="-0.64" xlink:href="#linear-gradient"/><linearGradient id="linear-gradient-6" x1="229" y1="211.47" x2="229" y2="35.47" xlink:href="#linear-gradient"/><linearGradient id="linear-gradient-7" x1="395.5" y1="211.39" x2="395.5" y2="8.39" xlink:href="#linear-gradient"/><linearGradient id="linear-gradient-8" x1="433" y1="211.49" x2="433" y2="43.49" xlink:href="#linear-gradient"/><linearGradient id="linear-gradient-9" x1="39.17" y1="211.51" x2="39.17" y2="47.51" xlink:href="#linear-gradient"/></defs><title>TreeLineFooter01_1</title><g id="Layer_2" data-name="Layer 2"><g id="TreeLine"><polygon class="cls-1" points="169 20 170 38 139 110 160 89 130 212 244 212 193 114 212 121 192.47 75.12 181 56 187 55 169 20"/><polygon class="cls-2" points="45 212 94 122 64 137 106 1 153 83 132 77 188 212 151 212 56 212 45 212"/><polygon class="cls-3" points="0 153 39 103 17 117 56 37 80 133 61 113 94 212 0 212 0 153"/><polygon class="cls-4" points="287 23 288 60 319 110 298 89 323 212 222 212 259 116 250 117 265.53 75.12 271 55 287 23"/><polyline class="cls-5" points="342 0 389 82 366 71 416 152 401 212 286 212 268 212 336 74 314 93 341 32 342 0"/><polyline class="cls-6" points="169 212 215 102 199 111 232 36 266 124 237 112 289 212 286 212 177 212 177 152"/><polygon class="cls-7" points="320 212 360.72 143.84 400 77 372 100 405 34 426 9 426 53 416 42 464 128 433 112 471 153 471 212 355 212 320 212"/><polygon class="cls-8" points="471 44 443 102 462 91 395 212 417 212 471 212 471 44"/><polygon class="cls-9" points="0 212 0 48 37 106 11 87 78.33 212 0 212"/></g></g></svg>