<svg xmlns="http://www.w3.org/2000/svg" viewBox="0 0 152.46 120.5"><defs><style>.cls-1{fill:#fff;}.cls-2,.cls-3{font-size:40px;}.cls-2,.cls-3,.cls-4{font-family:AmaticSC-Regular, Amatic SC;}.cls-2{letter-spacing:0.07em;}.cls-3{letter-spacing:0.07em;}.cls-4{font-size:28px;}</style></defs><title>ArrowCross</title><g id="ArrowCross"><g id="RightArrow"><path d="M23.77,106.5c-.8-.19-.54-.7-.39-1.21.3-1.06.56-2.13.86-3.27a5.34,5.34,0,0,0-3.3,4c-.3,1.49-1,2.84-1.42,4.29-.06.22-.21.43-.66.29.39-1.14.78-2.28,1.18-3.42a3.4,3.4,0,0,0,.32-.77c0-.47.39-1.3-.16-1.31a1.42,1.42,0,0,0-1.56,1.13,6,6,0,0,1-1.8,3.74c.21-.64.46-1.28.63-1.94.09-.34.53-.84,0-1a1.25,1.25,0,0,0-1.1.45c-.39.58-1.05.84-1.44,1.37s-.61.51-1,.16-.22-.73.16-1c1.56-1.15,3.12-2.32,4.71-3.43a22.72,22.72,0,0,0,3.62-2.87c.93-1,2.38-1.07,3.37-2,1.28-1.14,2.84-2,3.69-3.58.42-.75,1.25-.91,1.79-1.49a28.51,28.51,0,0,1,4.13-3.75c1.75-1.24,3.25-2.74,5-4,2.38-1.69,4.66-3.52,7-5.2a52.91,52.91,0,0,0,7.47-6.17c2-2,4.5-3.24,6.56-5.1a44.72,44.72,0,0,1,6.15-4.71,7.65,7.65,0,0,0,1.62-1.3,43.39,43.39,0,0,1,4.26-3.36c1.64-1.35,3.63-2.23,5-4a23.13,23.13,0,0,1,3.14-2.84c2-1.89,4.22-3.61,6.21-5.57a24.91,24.91,0,0,1,4.31-3.33c1.92-1.18,3.44-2.88,5.43-3.92,3.48-1.81,6-4.81,9.1-7.14,2.49-1.88,4.88-4,7.29-6,.54-.45,1.62-.44,1.47-1.72-1.66,1.19-3.26,2.33-4.85,3.49-3.08,2.26-5.75,5-9.11,6.94-1.85,1.06-3.33,2.75-5.08,4S93.11,43.8,91.3,45a38.64,38.64,0,0,0-3.91,3.11c-2.32,2-4.34,4.23-7.06,5.75a24.74,24.74,0,0,0-6.44,5.31c-1.41,1.61-3.31,2.77-4.93,4.2a15,15,0,0,1-3.1,2.34c-.72.36-1,1.43-2,1.24l-.65.41c-2.67.64.26-1.4.91-1.77,2-1.08,3.49-2.72,5.27-4a30.82,30.82,0,0,1,2.37-2,12.27,12.27,0,0,0,3.4-3,10.86,10.86,0,0,1,2.48-2.18c3.42-1.9,6.25-4.53,9.24-7,1.88-1.55,3.75-3.12,5.75-4.53,1.38-1,2.6-2.17,4-3.11,1-.7,1.77-1.72,2.78-2.44.55-.4,2.14-1.49,2.51-1.72,1.14-.74,2.2-1.61,3.33-2.38s5-4,5.86-4.68c2-1.64,4.22-3.11,6.32-4.69A65.76,65.76,0,0,0,123.55,19c1-.94,2.06-1.87,3.06-2.77a52.34,52.34,0,0,1,4-3.9c-1.65-.36-3.32.18-5,0-.16,0-.32,0-.48,0-.5-.07-.95-.26-1-.83s.51-.75.86-.8A22.57,22.57,0,0,0,130.06,9c2.76-1.09,5.52-2.19,8.26-3.33a7.44,7.44,0,0,0,2.1-.78c.22-.17,1,.15,1.28.55s0,.64-.24.93a82.09,82.09,0,0,0-5.16,7.88c-1.21,1.93-2.92,3.5-4.18,5.42-.37.57-1.18.13-1.75.05-.37-.05-.49-.56-.35-1s.24-.9-.16-1.1-.49.4-.74.61c-2.61,2.15-5.32,4.17-8.07,6.13-.74.52-1.67.78-2.24,1.55-.18.23-5,4.09-7.15,5.8s-4.35,3.46-6.46,5.28a56.39,56.39,0,0,1-7.31,5.66,14.73,14.73,0,0,0-2.83,2.12,17.37,17.37,0,0,1-3.27,2.33,41.43,41.43,0,0,0-5.36,4.33c-2.37,2.08-4.83,4.12-7,6.33-2.82,2.86-6.21,4.84-9.23,7.35-2.15,1.78-4.43,3.39-6.72,5a20.67,20.67,0,0,0-1.57,1.51,51.23,51.23,0,0,1-5.35,3.91,10.05,10.05,0,0,0-1.43,1.57,18.57,18.57,0,0,1-3.75,3.11c-1.45,1-2.63,2.21-4.07,3.16s-2.53,2-3.82,2.92c-1.5,1.1-3,2.14-4.47,3.32a45.74,45.74,0,0,1-4.66,3.69A20.9,20.9,0,0,0,32,95.42c-.7.6-.55,1.62-.81,2.44a51,51,0,0,0-2.17,7,.59.59,0,0,1-.78.52c-.49-.17-.24-.52-.1-.87.95-2.43,1.86-4.87,2.79-7.3.13-.34.35-.85,0-.93a1.34,1.34,0,0,0-1.06.62,20.73,20.73,0,0,0-2.46,4.8,11.15,11.15,0,0,0-.81,2.7c-.09,1.06-.83,1.9-.81,3a.41.41,0,0,1-.56.44c-.55-.19,0-.42,0-.61.68-1.9.92-3.93,1.65-5.82.17-.45,1-1,.35-1.42-.38-.26-.79.58-1.24.86a2.39,2.39,0,0,0-1.1,1.72c-.2,1.37-1,2.6-1.13,4ZM131.49,18c3.77-3.48,5.94-8,8.77-12l-.17-.26-11.75,5.08c.07.09.1.14.13.14l2.71.05c1.8,0,2.39.74,1.74,2.4-.4,1-.15,2.32-1.17,3.19A1.29,1.29,0,0,0,131.49,18Zm-5.27.3a2.52,2.52,0,0,0-1.31.94c-.17.2-.61.47-.3.79s.56-.19.67-.34C125.59,19.29,126.3,19.15,126.22,18.32Z"/><path d="M63.88,66.91A34.29,34.29,0,0,1,58,72c-1.68,1.12-3.41,2.18-5.06,3.31-1.37,1-2.45,2.44-3.82,3.5-3,2.31-5.65,5.08-8.81,7.2a11.9,11.9,0,0,1-1.38.88c-2.69,1.29-4.24,3.88-6.5,5.65-.16.12-.28.33-.46.38-1.35.34-2.17,1.54-3.39,2.07-.4.18-.45.52-.7.75-1.53,1.41-3.14,2.73-4.73,4.07-1.9,1.62-3.85,3.21-5.73,4.86a32.06,32.06,0,0,0-3.2,2.62c1,.72-.11,1.7-.23,1.72s-1.18-1.22-1.31-1.39c-.25-.35.74-.92,1-1.13.84-.65,1.67-1.33,2.51-2,.18-.14.5-.16.37-.49s-.37-.23-.61-.21a31.47,31.47,0,0,1-3.23.15,22.84,22.84,0,0,1,5-1.23c.31,0,.62,0,.9-.2.47-.39,1.5-.5,1.3-1.16s-1,0-1.6,0c-1.68.07-3.36.18-5,.28-.19,0-.42.09-.44-.21s.21-.46.54-.47c1.47,0,2.94-.06,4.4-.2a9.66,9.66,0,0,0,4.92-1.54c.47-.35.54-1.16,1.33-1.14a.74.74,0,0,0,.09-.43c-.07-.27-.26-.15-.47-.13a74.55,74.55,0,0,0-7.6,1,4.13,4.13,0,0,0-1.61.38c-.16.11-.51.16-.58-.17a.45.45,0,0,1,.42-.59l10.4-1.4a1.85,1.85,0,0,0,.58-.06.74.74,0,0,0,.51-.85c-.09-.34-.47-.21-.74-.19-1.61.12-3.23.23-4.85.28s-2.9-.5-4.4-.4c.07-.58.4-.55.71-.47,3.08.72,6.15.13,9.24,0,1.33,0,2.13-.92,3.21-1.33.11,0,.55,0,.41-.39s-.35-.38-.68-.35c-2.49.23-5,.43-7.47.66-.48,0-.76-.14-.78-.65s.31-.79.83-.71c2.58.39,5.14-.34,7.72-.12.34,0,.68-.2,1,.07A1.14,1.14,0,0,0,31.51,92c.57-.8,1.53-1.19,1.91-2.22a4.29,4.29,0,0,1,2.07-1.89A62.85,62.85,0,0,0,41.37,84a23.22,23.22,0,0,0,4.58-4c.89-1.12,2.36-1.38,3.25-2.51,1.62-2.08,3.88-3.37,6-4.85,2.47-1.71,5.14-3.23,7.07-5.62.58-.71,1.08.39,1.6,0C63.9,66.92,63.88,66.91,63.88,66.91Z"/><path d="M23.75,106.49a4.71,4.71,0,0,0-.59,1.75c-.05.3-.2.56-.53.47s-.32-.38-.24-.67c.2-.75.22-1.64,1.37-1.54C23.77,106.5,23.75,106.49,23.75,106.49Z"/></g><g id="LeftArrow"><path d="M127.82,106.35c-.18-1.39-1-2.59-1.21-4a2.41,2.41,0,0,0-1.14-1.7c-.45-.27-.88-1.1-1.25-.83-.61.43.19,1,.38,1.41.77,1.88,1,3.9,1.77,5.78.07.2.58.42,0,.62a.42.42,0,0,1-.57-.44c0-1.07-.76-1.89-.88-2.94a10.67,10.67,0,0,0-.86-2.69,20.26,20.26,0,0,0-2.56-4.74,1.3,1.3,0,0,0-1.07-.6c-.37.09-.14.59,0,.92,1,2.42,2,4.84,3,7.24.15.36.4.7-.08.88a.61.61,0,0,1-.8-.51,48.31,48.31,0,0,0-2.31-6.91c-.28-.81-.15-1.84-.86-2.42a21,21,0,0,0-2.4-2.1,45.64,45.64,0,0,1-4.74-3.58c-1.45-1.15-3-2.16-4.54-3.22-1.31-.93-2.55-2-3.88-2.85s-2.66-2.15-4.13-3.07a18.85,18.85,0,0,1-3.82-3,10.08,10.08,0,0,0-1.46-1.54A49.84,49.84,0,0,1,89,72.27a19.49,19.49,0,0,0-1.61-1.48c-2.32-1.55-4.63-3.12-6.81-4.85-3.08-2.44-6.51-4.36-9.39-7.15-2.24-2.17-4.74-4.16-7.15-6.19a41.49,41.49,0,0,0-5.45-4.22,17.17,17.17,0,0,1-3.32-2.25,14.83,14.83,0,0,0-2.88-2.07,57.65,57.65,0,0,1-7.42-5.5c-2.15-1.78-4.39-3.43-6.57-5.14S31.27,28,31.09,27.76a8.61,8.61,0,0,0-2.27-1.5c-2.79-1.9-5.55-3.86-8.2-6-.26-.2-.32-.81-.75-.59s-.27.72-.14,1.1,0,1-.32,1c-.58.09-1.37.55-1.76,0-1.3-1.89-3-3.42-4.29-5.32A82.15,82.15,0,0,0,8,8.72c-.24-.28-.52-.58-.25-.93s1-.74,1.26-.57A7.73,7.73,0,0,0,11.16,8C13.93,9,16.7,10.07,19.49,11.1a22.39,22.39,0,0,0,5.13,1.57c.35,0,.95.16.87.78s-.51.77-1,.85c-.15,0-.32,0-.47,0-1.65.26-3.33-.25-5,.15a52.57,52.57,0,0,1,4.05,3.81c1,.88,2.1,1.79,3.11,2.71a68.64,68.64,0,0,0,6.19,4.62c2.13,1.53,4.34,3,6.43,4.55.91.7,4.82,3.82,6,4.56S47,36.28,48.15,37c.37.23,2,1.28,2.54,1.67,1,.7,1.78,1.71,2.83,2.37,1.43.91,2.68,2.1,4.08,3,2,1.37,3.93,2.89,5.84,4.4,3,2.4,5.93,5,9.39,6.8a10.54,10.54,0,0,1,2.52,2.13,12.41,12.41,0,0,0,3.47,3,29.88,29.88,0,0,1,2.4,2c1.82,1.26,3.38,2.87,5.36,3.91.66.35,3.63,2.33,1,1.75l-.66-.39c-1,.2-1.28-.86-2-1.2a15.24,15.24,0,0,1-3.15-2.27,55.51,55.51,0,0,1-5-4.1,24.49,24.49,0,0,0-6.55-5.18c-2.76-1.46-4.82-3.7-7.18-5.6a38.67,38.67,0,0,0-4-3c-1.83-1.11-3.41-2.55-5.15-3.78s-3.28-2.9-5.16-3.92c-3.4-1.85-6.13-4.56-9.26-6.74-1.61-1.13-3.23-2.24-4.92-3.4-.12,1.29,1,1.25,1.51,1.7,2.45,2,4.89,4,7.42,5.82,3.12,2.27,5.72,5.21,9.24,7,2,1,3.57,2.67,5.51,3.81a24,24,0,0,1,4.38,3.24c2,1.91,4.25,3.58,6.33,5.43a23.85,23.85,0,0,1,3.2,2.77c1.37,1.76,3.37,2.61,5,3.92a40.93,40.93,0,0,1,4.33,3.27,7.66,7.66,0,0,0,1.65,1.27,44.4,44.4,0,0,1,6.24,4.57c2.1,1.82,4.66,3,6.67,5a51.62,51.62,0,0,0,7.59,6c2.42,1.63,4.74,3.41,7.16,5,1.75,1.18,3.28,2.65,5.06,3.85A28.33,28.33,0,0,1,120,94.7c.56.57,1.4.71,1.82,1.46.89,1.55,2.46,2.39,3.77,3.5,1,.86,2.46.94,3.41,1.89a23.75,23.75,0,0,0,3.68,2.79c1.62,1.08,3.19,2.22,4.78,3.33.38.27.56.61.19,1s-.66.28-1-.13-1.07-.77-1.47-1.35a1.27,1.27,0,0,0-1.11-.42c-.54.21-.09.69,0,1,.18.65.45,1.29.67,1.93a6.06,6.06,0,0,1-1.87-3.7,1.43,1.43,0,0,0-1.58-1.1c-.55,0-.18.85-.14,1.32a3.63,3.63,0,0,0,.34.76l1.25,3.39c-.44.15-.6,0-.67-.28-.44-1.44-1.18-2.77-1.51-4.26a5.32,5.32,0,0,0-3.38-4c.32,1.14.61,2.2.93,3.25.15.52.42,1-.37,1.23ZM18,18.74c-1-.85-.81-2.13-1.24-3.16-.68-1.65-.11-2.38,1.69-2.44.91,0,1.81-.06,2.71-.1,0,0,.06-.06.13-.14L9.39,8.05l-.17.27c2.92,4,5.19,8.45,9,11.85A1.28,1.28,0,0,0,18,18.74Zm6.53,3c.12.16.31.74.68.33s-.14-.58-.32-.79a2.44,2.44,0,0,0-1.33-.9C23.46,21.18,24.17,21.31,24.49,21.72Z"/><path d="M86.87,67.63a34.69,34.69,0,0,0,6,5c1.7,1.09,3.45,2.1,5.12,3.2,1.4.92,2.51,2.39,3.9,3.42,3.06,2.25,5.75,5,9,7a11.84,11.84,0,0,0,1.39.86c2.72,1.23,4.32,3.79,6.62,5.51.16.12.29.33.46.37,1.37.31,2.21,1.5,3.44,2,.4.16.46.51.72.73,1.56,1.38,3.19,2.66,4.81,4,1.94,1.58,3.91,3.12,5.84,4.73a34.36,34.36,0,0,1,3.25,2.55c-1,.75.14,1.7.27,1.71s1.15-1.24,1.27-1.41c.25-.35-.75-.91-1-1.11-.85-.63-1.69-1.29-2.55-1.92-.18-.13-.5-.15-.38-.48s.36-.24.61-.22a28.91,28.91,0,0,0,3.23.08,23,23,0,0,0-5-1.12c-.31,0-.61,0-.9-.19-.48-.37-1.52-.47-1.32-1.13s1,0,1.59,0c1.68,0,3.36.11,5,.18.2,0,.43.07.44-.22s-.21-.46-.55-.46c-1.47,0-2.94,0-4.4-.12a9.52,9.52,0,0,1-4.95-1.43c-.48-.34-.57-1.15-1.36-1.11a.67.67,0,0,1-.09-.43c.06-.27.26-.15.46-.14,2.56.17,5.1.43,7.63.85a4,4,0,0,1,1.61.35c.17.1.51.15.58-.18a.45.45,0,0,0-.43-.59l-10.43-1.17a2.2,2.2,0,0,1-.58,0,.75.75,0,0,1-.53-.84c.08-.34.47-.23.73-.21,1.62.09,3.24.17,4.86.18s2.89-.57,4.39-.49c-.08-.59-.41-.54-.72-.46-3.07.79-6.15.26-9.23.21-1.34,0-2.16-.88-3.24-1.26-.11,0-.56,0-.42-.39s.34-.39.67-.36l7.48.5c.49,0,.76-.15.77-.66s-.32-.79-.85-.7c-2.57.45-5.14-.23-7.72,0-.34,0-.68-.18-1,.09a1.14,1.14,0,0,1-1.6-.28c-.59-.79-1.56-1.15-2-2.18A4.27,4.27,0,0,0,115.69,88a64.2,64.2,0,0,1-6-3.75,23.18,23.18,0,0,1-4.66-4c-.91-1.1-2.39-1.33-3.3-2.44-1.66-2-4-3.28-6.12-4.72-2.51-1.66-5.21-3.12-7.19-5.47-.59-.7-1.07.41-1.6,0C86.85,67.64,86.87,67.63,86.87,67.63Z"/><path d="M127.82,106.35a4.73,4.73,0,0,1,.63,1.74c.06.3.21.56.54.46s.31-.39.22-.68c-.22-.74-.25-1.63-1.4-1.5C127.8,106.37,127.82,106.35,127.82,106.35Z"/></g><g id="CrossCoverup"><polygon class="cls-1" points="72.41 60.56 73.38 59.63 75.57 57.38 76.85 58.72 73.5 61.13 72.41 60.56"/></g><text class="cls-2" transform="translate(16.28 75.09)">RH</text><text class="cls-3" transform="translate(108.07 75.09)">DI</text><text class="cls-4" transform="translate(57.18 111.33)">2018</text></g></svg>