<svg xmlns="http://www.w3.org/2000/svg" viewBox="0 0 95.92 11.05"><defs><style>.cls-1{fill:#333;}</style></defs><title>Flourish2</title><g id="Layer_9" data-name="Layer 9"><path class="cls-1" d="M40.49.51A4.82,4.82,0,0,1,40.3,2c-.44.87-1,1.66-1.54,2.51a4.59,4.59,0,0,0-.33,1.05,7.5,7.5,0,0,1,1-.14c1.69,0,3.39-.12,5.09-.13,3.11,0,6.22,0,9.33,0a1.67,1.67,0,0,0,1.8-1c.46-.95,1-1.88,1.46-2.78,1.44.4.79,1.11.49,1.76S57,4.57,56.78,5c3.06.1,6.09.24,9.12.26,4.53,0,9.06,0,13.59,0s9,0,13.44.06a5.27,5.27,0,0,1,1.47.48v.49a6.88,6.88,0,0,1-1.57.33C84,6.47,75.2,6.27,66.38,6.12c-3.26,0-6.53-.06-9.8,0a2,2,0,0,0-1.28.82c-.68.95-1.23,2-2,3.23-.48-1.58.68-2.59.83-3.93-1.07,0-2.08-.09-3.08-.08-4.27,0-8.54,0-12.81.16-1.36,0-1.63,1.47-2.26,2.37a18.19,18.19,0,0,1-1.3,2c-.83-1.71,1-2.67,1-4.24l-7.9.14c-5.11.09-10.22.13-15.33.32-3.45.12-6.9.46-10.36.7a1.71,1.71,0,0,1-.71,0,5.11,5.11,0,0,1-.8-.54c.26-.18.5-.5.77-.52,2.7-.16,5.41-.33,8.12-.39,8.18-.2,16.35-.46,24.52-.47,2.08,0,3.34-.55,4.18-2.4A22.72,22.72,0,0,1,39.86.63a.67.67,0,0,1,.19-.14Z"/></g></svg>