<svg xmlns="http://www.w3.org/2000/svg" viewBox="0 0 106.5 125.5"><defs><style>.cls-1{fill:#fff;}.cls-2{fill:#c16842;}</style></defs><title>FoxHead</title><g id="FoxHead"><polygon id="BG_RightCheek" class="cls-1" points="60.59 76.92 74 54.33 88.44 53.33 98 54.5 87.9 72 64.19 106.24 61.36 106.24 60.59 76.92"/><polygon class="cls-1" points="7.58 57.12 33.23 56.55 37.58 59.75 48.6 71.7 50.53 75.17 50.45 106.53 48.44 106.24 13.08 64.92 6.58 57.67 7.58 57.12"/><path id="FoxEye" d="M36.92,67.24l-.66,1.61c-.1.19-1.35,1.64-1.48,1.81l-.88,2a.72.72,0,0,1-.92,0l-1.93-2.4-1.51-2.84a.29.29,0,0,1,.23-.44l2.44.3c1-.25,1.25,0,2.49-.21l2-.3A.26.26,0,0,1,36.92,67.24Z"/><path id="FoxEye-2" data-name="FoxEye" d="M82.3,64.27l-.71,1.59c-.09.19-.39,1.6-.52,1.77l-2.27,2a.36.36,0,0,1-.6,0L74.92,64.3a.29.29,0,0,1,.25-.44l2.42.38c1-.22,1.26,0,2.5-.13l2-.25A.26.26,0,0,1,82.3,64.27Z"/><path id="Fill" class="cls-2" d="M19.86,56.36l14.92.21,15.07,16.5.6,33.45,10.91-.28,1.79-24.08a31.44,31.44,0,0,1,3-11.29l7.62-16,1.29-1.3L92.45,54l-7-29.54L79.59,6.71,69.28,30.1,34.61,32.05,25.47,8.73l-3.3,16.7a36.81,36.81,0,0,0-.68,5.82l-.94,24.53"/><g id="Outline"><path d="M85.87,36.54c-2.54-2.3-5.09-4.59-7.62-6.89a3.58,3.58,0,0,1-.49-.71l.44-.11.09.06-.14,0,0-.09-.42.13a1.33,1.33,0,0,1-1.34-.77c-1-1.5-2.8-2.16-3.85-3.64-.52-.73-.87-.26-1.1.37-.37,1-1.51,5.76-1.34,3a19.22,19.22,0,0,1,2.08-5.65c.68-1.1.75-2.49,1.3-3.7,1.38-3,2.42-6.21,4-9.17a13.09,13.09,0,0,0,.83-2.75c.27-1,1.1-.8,1.88-.81s.5.56.6,1c.34,1.52.25,3.26.8,4.54.78,1.82.7,3.82,1.76,5.56.72,1.19,1,1.29,1.25,2.71.11.73.72,2.44.8,3.15A29.27,29.27,0,0,1,87,27.37a3,3,0,0,0,0,.59c1,2.64,1,5.48,1.82,8.13.49,1.57,1,3.15,1.42,4.72A48.39,48.39,0,0,1,92,49.16a4.32,4.32,0,0,0,.59,1.62c0,.07,0,.18.09.23.71.54-.53,2.16,1.27,2.15,1,0,2,.39,3,.12a2.31,2.31,0,0,1,2.68.73c.22.28.35.48,0,.84a28.9,28.9,0,0,0-6,8.83c-.36.85-1,1.5-1.38,2.29a104.71,104.71,0,0,1-6.88,11c-2.23,3.32-4.91,6.29-6.93,9.77-.92,1.6-2.11,3-3,4.65a13.35,13.35,0,0,1-1.31,1.42c-2,3.18-3.66,6.53-6,9.49-.85,1.06-1.31,2.41-2.48,3.27-.33.24.16.35.31.5-.43,1.38-2.41,4.2-3,5.27-.77,1.52-1.74,2.94-2.46,4.49a1.24,1.24,0,0,1-2.16,0C57,114,55,113.13,53.24,112a14.4,14.4,0,0,1-1.91-1.43,20.69,20.69,0,0,0-3.79-2.92,1.47,1.47,0,0,1-.51-.7c-.86-2.08-2.52-3.57-3.85-5.31-2.32-3-4.9-5.84-7.2-8.9a53,53,0,0,0-5.26-5.88c-2.23-2.18-4.38-4.44-6.48-6.74S20,75.24,18,72.65c-1.84-2.43-3.2-5.25-5.61-7.24a2.53,2.53,0,0,1-.79-1.24c-.3-1.11-1.28-1.55-2-2.27C8.73,61,7.87,60,7,59.09c-.26-.27-.57-.5-.85-.75s-.87-.17-.75-.92a1.35,1.35,0,0,1,1.06-1c2,0,3.85-.7,5.9-.33a32.57,32.57,0,0,0,5.68.07c.37,0,.78-.1.79-.46,0-.86.6-1.56.6-2.41a30.71,30.71,0,0,1,1.05-7.51,5.21,5.21,0,0,0,.15-1.07,34.14,34.14,0,0,1,.2-3.77,48.94,48.94,0,0,0,.69-5.35c0-2.82.72-5.57.82-8.35s.58-5.25.82-7.88c.16-1.84.35-3.71.35-5.52,0-1.42.84-2.62.53-4.08-.17-.77.57-1.24,1.45-1a2.52,2.52,0,0,1,1.71,2c.52,2.08,1.48,4,2.18,6s1.46,4,2.35,5.94a32.7,32.7,0,0,1,1.88,4.09,13.88,13.88,0,0,0,1.08,3.2,1.77,1.77,0,0,0,2.43.86c1.76-.87,3.66-.48,5.5-.66a14.78,14.78,0,0,1,1.87.08c3.2.1,6.41-.14,9.58,0,2.88.15,5.72-.22,8.56-.17,1.75,0,3.47-.31,5.21-.18.85.07,1.78-.91,2.32-2.08,1,.16-1.27,3.85-2,3.89-4.89.24-9.79.56-14.68.5-3.28,0-6.58,0-9.88-.28a38.86,38.86,0,0,0-6.71.31c-.94.1-1.89-.19-2.84.21a.62.62,0,0,1-.72-.85,1.1,1.1,0,0,0-.06-1.07,7.42,7.42,0,0,1-1.09-3.15c-.08-.45-.18-.84-.66-.95s-.69.22-.92.52c-1.41,1.79-2.9,3.52-4.2,5.39-.93,1.33-2.27,2.29-3.11,3.7a3,3,0,0,0-.55,1.61,21.35,21.35,0,0,1-.8,5.08A17,17,0,0,0,22,45.16c-.19,3.27-1.33,6.43-1.07,9.73,0,.4-.49.47-.35.89.7.32,1.38-.07,2.05-.17,3.42-.47,6.9.12,10.28-.28,2.28-.28,3.2,1,4.07,2.31a49.42,49.42,0,0,0,3.47,4.63,60.51,60.51,0,0,0,5.66,6.39c1.42,1.3,2.59,3.11,4.75,3.48.56.1.52.69.53,1.12,0,1.92,0,3.84-.09,5.76a13.82,13.82,0,0,0,0,3.8c.34,1.35-.31,2.7-.12,4a32.35,32.35,0,0,1,.06,6.22c-.18,3.2.42,6.4-.08,9.6-.13.89.14,1.85,0,2.8-.11.65.46,1,1.07.89,1.85-.32,3.71-.25,5.56-.44a9.1,9.1,0,0,1,2.33.19,49.34,49.34,0,0,0,1.08-8.8c.19-3.14.11-6.28,0-9.41-.07-2.84-.23-5.67-.52-8.5-.06-.5.1-1.08-.8-.75-.4.14-.76-.26-1-.6s.16-.59.31-.84A26.58,26.58,0,0,1,63,71.39l0,.09v-.07a37.44,37.44,0,0,1,3.8-6.18,46.87,46.87,0,0,0,5.38-8.74,10.64,10.64,0,0,0,1.41-2.67c.1-.46.67-.75,1.28-.82a71.86,71.86,0,0,1,7.76-.37,33.85,33.85,0,0,1,8,.44c.62.14.76,0,.71-.68-.21-3-1.24-6-1.53-9-.15-1.62-1.16-2.93-1.21-4.53,0-.47-.45-.53-.76-.72-.76-.45-1.78-.58-2-1.65.24,0,.52-.06.35-.41,0-.11-.31-.24-.35-.2C85.59,36.1,85.88,36.32,85.87,36.54Zm-6.32-29,.08,0h-.11ZM50.07,93.43h0V93h.06s-.06,0-.05,0S50.06,93.3,50.07,93.43ZM27.14,27.86c0,.06.08.14,0,0l.07,0ZM80.36,15.91l0,0,.07,0,0,0ZM80,14.76c-.81.2-.81.2-.17,1.1,0-.42.1-.77.14-1.12l0-.44-.09,0ZM26.25,24.47c-.49-.3-.8-.1-.94.38-.07.24.06.33.34.34.58,0,.72-.23.57-.74l.21-.24-.15-.08Zm2,3c.9-.18,1-.84,1-1.59-.29.55-1.08.81-.95,1.62l-.05.06Zm-3.46,5.38c-1-.79-1.07.35-1.45.78-.13.16-.32.48,0,.64s.52-.09.6-.39a2.19,2.19,0,0,1,.86-1.06c.14-.23.68-.22.38-.74C24.75,32.22,24.79,32.53,24.76,32.82Zm54-15.94c-.32-.14-.68-.47-1-.1a1.42,1.42,0,0,0-.07,1.68,5.26,5.26,0,0,0,.67,1.71c.11.13.22.28.4.16a.92.92,0,0,0,.32-.36c.14-.33-.06-.28-.3-.27-.43,0-.36-.27-.22-.48.8-1.23-.38-.68-.76-.85.2-.58.85-.87.93-1.52.7.17.66-.28.5-.69-.08-.22-.06-.69-.45-.57s-.29.51-.17.83C78.71,16.57,78.75,16.73,78.8,16.88ZM26.5,26.67c-.07-.17-.09-.41-.37-.32,0,0-.09.14-.07.2.1.28.29.16.47.09-.11.23-.2.51,0,.69s.38,0,.51-.2a2.78,2.78,0,0,0,1-1.87C27.23,25.52,26.63,25.84,26.5,26.67Zm1.73-3.2c-1.35-.15-.61-1.5-1.17-2.13-.45.45.14,1.19-.64,1.66,0-.69-.48-1.16.21-1.78.42-.38.26-1-.57-.68l.13-.41-.17,0,.05.44a.57.57,0,0,1,.07.22l0,0c-.44-.12-.4.58-.83.5l0,.5h.09l-.06-.51c.58.4.2,1.13.56,1.61l-.14.45.19,0-.08-.45c.3.42.74.7.81,1.32.12,1.08.55,0,.86.05.63.19.8-.18.67-.75ZM46.11,71a11.83,11.83,0,0,1-1-.79c-1.56-1.49-2.75-3.31-4.21-4.89s-2.54-2.95-3.79-4.45-2.09-3.35-4.33-3.65c-.77-.11-1.48.31-2.19.11-1.91-.53-3.8.13-5.71.05a41.22,41.22,0,0,0-6.55.52c-3.15.35-6.32-.17-9.55.09a6.84,6.84,0,0,0,.67,1.44c2.17,2.64,4.37,5.25,6.56,7.88A37.3,37.3,0,0,1,19.48,72,31.43,31.43,0,0,0,24,77.55c1.26,1.29,2.53,2.6,3.8,3.89s2.61,2.85,3.85,4.35c1,1.27,2.5,2.2,3.5,3.5q4.66,6,9.68,11.82c1.22,1.4,2.38,2.85,3.6,4.24.25.29.63.75,1,.59.54-.21.11-.71.08-1.1a4.25,4.25,0,0,1-.07-1,31,31,0,0,0,.19-7.14,16.23,16.23,0,0,1,0-1.71q.21-5.26.24-10.54c0-2.35-.11-4.7-.14-7a5.46,5.46,0,0,0-1.93-4.66A10.47,10.47,0,0,1,46.08,71l0,0Zm15.6,35.22c.89,0,1.29,0,1.7-.63A5.45,5.45,0,0,1,65.67,103a3.31,3.31,0,0,0,1.3-1.61,41,41,0,0,1,2.37-4.19q3.43-5.07,7-10c1.58-2.2,3-4.52,4.58-6.69s3.43-4.66,5.23-6.94a42.32,42.32,0,0,0,3.79-6.1c2.17-3.94,4.33-7.89,6.75-11.69.26-.41.27-.6-.33-.73-1.54-.34-3.15.14-4.59-.25a32.37,32.37,0,0,0-5.93-.58,28.82,28.82,0,0,0-7.76,0c-1.22.24-2.71.06-3.49,1.32-1.32,2.14-2.47,4.38-3.84,6.5-2.37,3.67-4.91,7.23-7.19,11a7.68,7.68,0,0,0-1.38,4.76c.3,2.82.49,5.64.62,8.47.15,3.28.09,6.57.12,9.86,0,.37-.09.74-.12,1.11-.18,2.14-.29,4.29-.58,6.42C62.1,104.46,62.54,105.32,61.71,106.22Zm16.15-79.3c.27.55.37,1.3,1,1.11a1.91,1.91,0,0,0,1.32-1.75C79.31,26.21,79.2,28.35,77.86,26.92ZM79.5,8.57c.26.87-.29,2,.79,2.78A6.06,6.06,0,0,0,79.5,8.57ZM58.07,109.63c-.46.51-1.27.15-1.61.86-.08.18,0,.32.23.33a1.58,1.58,0,0,0,1.44-.94S58.12,109.81,58.07,109.63Zm24.4-87.41c0-.21,0-.57-.21-.5-.56.16-.58.78-.79,1.22-.11.25.16.27.28.26C82.32,23.12,82.41,22.67,82.47,22.22ZM30.39,24.08c-.31.6-.62,1.09.07,1.53.19.12.39.22.5,0C31.21,25,30.87,24.58,30.39,24.08ZM27,18.2c-.65.4-1.06.68-.74,1.28.09.16.22.46.44.26C27.12,19.37,26.92,18.85,27,18.2ZM80.19,29.91c.58-.46,1.16-.58,1.13-1.31,0-.17-.08-.38-.27-.32-.48.15-.51.69-.78,1C80.21,29.39,80.24,29.53,80.19,29.91Zm8.25,7.75-.76-1.8C87,36.86,87.41,37.24,88.44,37.66ZM56.61,109.17a2.79,2.79,0,0,0,1.21-1.48A1.26,1.26,0,0,0,56.61,109.17ZM84.18,27.82c-.28.53-.4.95,0,1.35.1.11.35.21.41,0A1.2,1.2,0,0,0,84.18,27.82ZM26.58,15.29c-.74.57-.49,1.11-.47,1.59,0,.12.23.22.4.08.46-.37-.23-.73,0-1.11A2.42,2.42,0,0,0,26.58,15.29Zm53,5.21c-.27.48-.89.41-.64,1a1.49,1.49,0,0,0,.28.34A1.1,1.1,0,0,0,79.57,20.5Zm-18.5,87.63c-1,.12-1.06.6-.87,1.22ZM27.63,18.27a.9.9,0,0,0-.05-1.49A2,2,0,0,0,27.63,18.27ZM80.2,13.65c0-.39.41-1-.33-1.22C79.65,13,80.14,13.24,80.2,13.65Zm3.22,11.6a2.14,2.14,0,0,0-.43,1.6C83.17,26.43,83.7,26.15,83.42,25.25Zm-2.49-1.31c0-.2-.1-.35-.25-.3a.7.7,0,0,0-.41.4c0,.22.15.38.37.37S80.84,24.1,80.93,23.94ZM58.17,111.62c.49-.38.94-.54.91-1.15C58.47,110.56,58.23,110.86,58.17,111.62ZM77.93,21.36c-.39.2-.39.51-.29.85a.17.17,0,0,0,.29.07A.53.53,0,0,0,77.93,21.36Zm2.84,9.07c.67.07.92-.15,1-.67C81.27,29.69,81.07,30,80.77,30.43ZM24.05,26.49c-.34.39-.48.68-.24,1,0,.06.26.06.3,0C24.33,27.19,24.22,26.88,24.05,26.49Zm53.08-6.86c0,.36-.22.73.08,1.05,0,0,.28,0,.32-.1C77.74,20.19,77.51,19.89,77.13,19.63ZM24.3,25a1.49,1.49,0,0,0,0-1.22C24,24.09,23.79,24.39,24.3,25Zm60,5.52c-.22,0-.23.22-.23.36s.08.41.35.38a.28.28,0,0,0,.25-.35C84.67,30.67,84.6,30.47,84.33,30.48Zm-3.46-8.64c.38-.3.6-.56.48-1A1,1,0,0,0,80.87,21.84Zm-3.67.6c-.41.29-.51.57-.35.92,0,.05.14.05.23.07C77.39,23.18,77.3,22.86,77.2,22.44ZM25.61,12.18c.06-.2.13-.31.11-.41s-.11-.58-.38-.4S25.27,11.86,25.61,12.18ZM80.28,22.77c0-.29-.13-.33-.35-.34s-.32,0-.35.23a.37.37,0,0,0,.3.45C80.11,23.16,80.21,23,80.28,22.77ZM25.87,31.34a.47.47,0,0,0,.45-.33c0-.08,0-.27-.07-.29a.36.36,0,0,0-.49.21A.31.31,0,0,0,25.87,31.34ZM80.23,27.9c-.38.29-.72.47-.59,1C80.14,28.77,80.28,28.49,80.23,27.9Zm5.51,6.21c-.11-.14-.17-.28-.25-.3a.28.28,0,0,0-.35.25c0,.16,0,.38.21.33S85.59,34.22,85.74,34.11ZM30,22.65c-.06-.06-.16-.23-.28-.24-.31,0-.25.24-.23.41s.11.32.31.28S30,22.91,30,22.65Zm-.43-1.38c-.12-.12-.2-.3-.32-.32s-.21.19-.21.32a.27.27,0,0,0,.3.29C29.39,21.55,29.45,21.4,29.55,21.27ZM52.09,108a.23.23,0,0,0-.19.34.6.6,0,0,0,.33.3c.19,0,.3-.13.27-.29A.4.4,0,0,0,52.09,108ZM24.26,28.68c-.06.1-.16.19-.18.29s0,.27.2.18a.54.54,0,0,0,.15-.3S24.34,28.75,24.26,28.68Zm1.65-15.92c-.07-.22-.12-.41-.31-.35s-.14.25-.15.38,0,.38.22.28S25.85,12.85,25.91,12.76Zm50.36,11c-.18,0-.22.1-.22.22a.41.41,0,0,0,.34.43s.2-.13.21-.22C76.64,23.89,76.49,23.76,76.27,23.71Zm10.33,7.8c.15,0,.24-.06.22-.19a.42.42,0,0,0-.17-.29c-.1-.09-.22,0-.25.11A.3.3,0,0,0,86.6,31.51ZM59.53,112.1c0-.28.5-.16.25-.64C59.64,111.67,59.32,111.7,59.53,112.1ZM24.81,16.48a.47.47,0,0,0,.14-.54.26.26,0,0,0-.19,0A.52.52,0,0,0,24.81,16.48Zm34.4,96.79-.19-.21a2.42,2.42,0,0,0-.32.32s.12.2.21.22S59.15,113.46,59.21,113.27ZM77.12,25.62c.16,0,.25-.07.22-.21a.52.52,0,0,0-.19-.28.34.34,0,0,0-.28.14C76.81,25.46,77,25.55,77.12,25.62ZM55.44,110.15c-.11-.14-.17-.28-.26-.3s-.29.13-.31.29.1.19.15.29ZM22.59,29.2a1.3,1.3,0,0,0,.17-.33s-.11-.14-.15-.13a.92.92,0,0,0-.25.15Zm3-11.48.25.19c0-.06.12-.16.1-.18a1.64,1.64,0,0,0-.24-.21Zm54.84,2.36c.1-.42-.06-.43-.15-.4a.37.37,0,0,0-.2.24c0,.09.07.19.11.29ZM28.2,22.23a2.48,2.48,0,0,0-.52-.28c-.1,0-.25.07-.17.22a.37.37,0,0,0,.24.19C27.85,22.38,28,22.31,28.2,22.23Zm-3.95,8-.18-.29a1.86,1.86,0,0,0-.21.28c-.06.13,0,.24.14.22S24.16,30.31,24.25,30.23ZM76.91,17.85a1.12,1.12,0,0,0-.1.33c0,.05.07.11.12.17a1,1,0,0,0,.12-.29S77,17.94,76.91,17.85Zm-49.81-3c0,.07-.11.14-.11.2s.08.13.12.2.1-.14.1-.2S27.14,15,27.1,14.88ZM78,24.88a1.15,1.15,0,0,0,.07-.33s-.1-.08-.15-.12a1.11,1.11,0,0,0-.1.29S77.88,24.81,78,24.88Zm.62-.93-.12-.15-.07.06.11.15Zm-2.72-1.27a2.21,2.21,0,0,0-.06.32s.11.06.17.09.09-.2.12-.3S76,22.73,75.87,22.68ZM59.69,109.86s0-.09-.07-.09a1.72,1.72,0,0,0-.21.07s.06.09.07.08A1.29,1.29,0,0,0,59.69,109.86ZM78.62,15l0-.09-.17.07,0,.07Zm-.58.45c0-.08,0-.17,0-.22s-.2-.08-.24,0a.31.31,0,0,0,.07.2S78,15.44,78,15.43Zm3.18,9.9c-.07,0-.14-.11-.2-.11s-.12.07-.18.11.12.11.18.11S81.15,25.37,81.22,25.33ZM79.53,12.17s0-.08-.06-.09-.06,0-.09.06l.11.12Zm-51.2,7.24,0,.11.1,0a.43.43,0,0,0,0-.11S28.36,19.42,28.33,19.41ZM78.9,12a1,1,0,0,0-.07.21s0,.06.08.09.1-.11.1-.16S78.94,12,78.9,12Zm-1.44,4.26a.35.35,0,0,0,0-.11s0,0-.08,0a.21.21,0,0,0,0,.1S77.43,16.24,77.46,16.25ZM24,28.06s0,.06,0,.07a.18.18,0,0,0,.1,0l0-.14ZM79.49,6.78l.1-.07-.08-.09-.12.12Zm-24,101.94,0,.09s.07,0,.08,0a.11.11,0,0,0,0-.08S55.53,108.73,55.51,108.72ZM80.4,14.49s.07,0,.08-.05a.17.17,0,0,0,0-.1l-.12.06Zm-2-.35,0,.09h.15a.38.38,0,0,0,0-.1Zm1-1.27,0,.08,0-.08ZM27,16l.08,0V16Zm.38,2.77-.07-.08s-.09.05-.09.08,0,.06.08.09Zm48,3.11s.08,0,.08-.07,0-.06-.07-.09-.07.05-.08.08S75.38,21.85,75.4,21.87ZM81,26.53l0,.08H81Z"/><path d="M50.56,44.68A.54.54,0,0,1,51,44c.32,0,.47.29.53.59.33,1.55.25,3.22,1.37,4.56a.67.67,0,0,1-.3,1c-.5.25-.62-.21-.81-.52A11.1,11.1,0,0,1,50.56,44.68Z"/><path d="M51.73,40.52c-.11-1.24-.23-2.42-.33-3.61,0-.24-.09-.53.23-.63a.49.49,0,0,1,.66.4c.18,1.44.83,2.84.54,4.32-.07.37-.22,1-.66,1-.6-.05-.45-.67-.47-1.11A1.39,1.39,0,0,1,51.73,40.52Z"/><path d="M58.06,36.56c.38.12.63.31.51.81a6.43,6.43,0,0,0,0,3.4.77.77,0,0,1-.44,1c-.43.1-.54-.36-.68-.72-.62-1.48.3-2.84.27-4.27C57.67,36.62,57.85,36.51,58.06,36.56Z"/><path d="M58.88,49.64c-.31,1.66,1.19,2.89.74,4.5-.06.24.36.57-.1.74a.71.71,0,0,1-.69-.19c-.27-.2-.31-.33-.16-.7a1.84,1.84,0,0,0-.3-1.75C57.49,50.91,57.51,50.84,58.88,49.64Z"/><path d="M66.21,36.81c-.56,1.39.23,2.48.07,3.62A2.59,2.59,0,0,1,66,41.57c-.1.16-.28.13-.43,0a.9.9,0,0,1-.3-1.12c.36-.59-.06-1-.16-1.52a2.88,2.88,0,0,1,.1-2.14c.14-.25.24-.63.57-.55A.54.54,0,0,1,66.21,36.81Z"/><path d="M46.34,44.84c0-.51-.08-.9.32-1.17s.66-.32.68.22a7.59,7.59,0,0,0,1,3.51c.13.22.28.63-.24.8a.61.61,0,0,1-.84-.3C46.88,46.85,46.61,45.77,46.34,44.84Z"/><path d="M43.93,40c-.74,1.29,0,2.12.42,3.08s-.28,1.83-.29,2.79c0,.28-.52.23-.49,0,.21-1.67-.45-3.15-.86-4.69A1.57,1.57,0,0,1,43.93,40Z"/><path d="M54.69,49.42a2.48,2.48,0,0,1,.54-1.28c.21-.23.39-.69.75-.5s.1.55-.1.82a.86.86,0,0,0,.1,1.23c.71.7.44,1.67.64,2.51a.38.38,0,0,1-.31.47c-.12,0-.39-.15-.39-.24A6.76,6.76,0,0,0,54.69,49.42Z"/><path d="M53.86,35.15c.17-.44-.21-.95.35-1.17.17-.06.5-.06.57,0A1.16,1.16,0,0,1,55,35.27c-.3.68.19,1.33.33,2,.1.44.29,1-.32,1.16s-.68-.46-.76-.92C54.12,36.69,54,35.89,53.86,35.15Z"/><path d="M46.84,35.76c.34.11.66.4.46.72a3.11,3.11,0,0,0,0,2.85c.09.28.31.68-.21.82a.57.57,0,0,1-.8-.52c-.21-1.1-.83-2.18-.13-3.32C46.35,36.07,46.48,35.79,46.84,35.76Z"/><path d="M39.59,38.25c.08-.24.15-.57.28-.88s.25-.71.68-.57.12.48.06.77a4.46,4.46,0,0,0,.48,2.72c.15.39.54.91-.15,1.15s-.69-.36-.86-.84C39.81,39.86,39.8,39.08,39.59,38.25Z"/><path d="M59.57,43.62c-.38.83.09,1.81-.32,2.66-.14.29-.32.81-.79.65s-.15-.57-.08-.86c.2-.87-.27-1.79.26-2.67.18-.3.22-.64.61-.55S59.6,43.27,59.57,43.62Z"/><path d="M70,36.47c0,.07,0,.6-.38.61a.78.78,0,0,1-.85-.87c0-.69-.43-1.37,0-2.07a.63.63,0,0,1,.61-.36c.31,0,.36.26.39.53C69.79,34.93,69.87,35.55,70,36.47Z"/><path d="M54.67,43.54c.35.78-.34,1.31-.46,2a.41.41,0,0,1-.5.26c-.26-.1-.15-.31-.13-.52.07-.7.09-1.41.12-2.11,0-.4-.15-1,.46-1a.71.71,0,0,1,.62,1C54.74,43.32,54.7,43.43,54.67,43.54Z"/><path d="M64.11,42.57c0,.93.27,1.82-.33,1.88-.84.08-.58-.93-.71-1.46s-.08-1.61.6-1.6S64.07,42.37,64.11,42.57Z"/><path d="M48.67,32.94c-.13,1.31,1.19,2.58,0,3.9-.09.11-.1.36-.34.24s-.31-.33-.14-.5c.6-.59.29-1-.07-1.61S48.4,33.62,48.67,32.94Z"/><path d="M37.2,39.21c-.87-.09-.83-.7-.76-1.14a5.52,5.52,0,0,0-.5-3.11c-.13-.3-.19-.62.21-.69s.3.3.41.51C37.23,36.17,36.8,37.71,37.2,39.21Z"/><path d="M61.47,38c0-1.13-.61-2.19,0-3.29.12-.23.23-.49.54-.4s.25.41.19.63a4.49,4.49,0,0,0,0,1.93A1,1,0,0,1,61.47,38Z"/><path d="M61.69,49.4a7.69,7.69,0,0,1-.28-3.23c0-.23-.27-.65.26-.64.27,0,.38.28.38.56A7.76,7.76,0,0,1,61.69,49.4Z"/><path d="M42.81,34.5A.93.93,0,0,0,43,35.71a2.66,2.66,0,0,1,.47,1.87c0,.16.06.33-.14.4s-.41,0-.42-.13A12,12,0,0,0,42.23,35c-.06-.26.25-.5.6-.48Z"/><path d="M66.35,33.09c-.4.28.16,1.12-.58,1.26-.26,0-.48-.32-.34-.66s0-1.09.7-1.15C66.34,32.53,66.44,32.78,66.35,33.09Z"/><polygon points="43.07 34.23 43.11 34.15 43.04 34.2 43.07 34.23"/><path d="M42.83,34.52l.25-.29,0,0c0,.16,0,.29-.23.3Z"/><path d="M45.9,90.5c-.49-.06-.85-.2-.81-.84a1.23,1.23,0,0,1,.9-1.19c.38-.06.79.51.71,1S46.68,90.57,45.9,90.5Z"/><path d="M42,89.9c0,.5-.29.88-.75.83s-1.05-.23-1-.91a1.05,1.05,0,0,1,.95-.85C41.78,88.92,42,89.41,42,89.9Z"/><path d="M44.76,93.66a.69.69,0,0,1,.64.9c-.09.49-.2,1.07-1,1s-.43-.77-.54-1.12C43.74,93.92,44.36,93.81,44.76,93.66Z"/><path d="M70.4,88.59c-.41-.09-.76-.27-.71-.72a1.7,1.7,0,0,1,1.17-1.38c.41-.14.5.63.52,1C71.43,88.06,70.88,88.34,70.4,88.59Z"/><path d="M64.72,88.21c-.06-.76.16-1.27.87-1.33a.64.64,0,0,1,.69.69,1.38,1.38,0,0,1-1.12,1.18C64.52,88.87,64.82,88.35,64.72,88.21Z"/><path d="M67.71,92.67c0,.57-.46.66-.94.74-.32,0-.74,0-.64-.33s.14-1.19.76-1.28C67.28,91.75,67.6,92.17,67.71,92.67Z"/><path d="M26.14,20.75h.08l0,0Z"/></g></g></svg>