<svg xmlns="http://www.w3.org/2000/svg" viewBox="0 0 166 205.86"><defs><style>.cls-1{fill:#fff;}.cls-2{fill:#c16842;}</style></defs><title>FullFox_FlattenedText</title><g id="ArrowCross_copy" data-name="ArrowCross copy"><g id="CrossCoverup_copy" data-name="CrossCoverup copy"><polygon class="cls-1" points="80.87 140.38 81.83 139.44 84.02 137.2 85.31 138.54 81.96 140.95 80.87 140.38"/></g><g id="RightArrow"><path d="M32.23,186.32c-.8-.19-.54-.7-.39-1.22.3-1,.56-2.12.85-3.27a5.36,5.36,0,0,0-3.29,4c-.3,1.5-1,2.85-1.42,4.3-.06.22-.22.42-.67.29L28.5,187a3.55,3.55,0,0,0,.31-.77c0-.47.39-1.3-.16-1.31a1.41,1.41,0,0,0-1.55,1.13,6.07,6.07,0,0,1-1.8,3.74c.21-.65.46-1.29.63-1.94.08-.34.53-.84,0-1a1.27,1.27,0,0,0-1.1.44c-.39.59-1,.85-1.44,1.38s-.61.5-1,.16-.21-.73.16-1c1.57-1.15,3.12-2.32,4.72-3.43a24.41,24.41,0,0,0,3.62-2.87c.93-1,2.37-1.08,3.37-2,1.28-1.14,2.84-2,3.69-3.58.41-.76,1.25-.91,1.79-1.49a29.18,29.18,0,0,1,4.13-3.76c1.74-1.23,3.25-2.74,5-4,2.39-1.69,4.67-3.52,7-5.2a51.67,51.67,0,0,0,7.46-6.18c2-2,4.51-3.23,6.57-5.09a44.45,44.45,0,0,1,6.14-4.71,7.46,7.46,0,0,0,1.63-1.3A40.86,40.86,0,0,1,82,141c1.64-1.35,3.62-2.23,5-4a23.77,23.77,0,0,1,3.15-2.83c2-1.9,4.22-3.61,6.21-5.57a24.91,24.91,0,0,1,4.31-3.33c1.91-1.18,3.44-2.89,5.43-3.92,3.48-1.81,6-4.81,9.1-7.14,2.49-1.88,4.88-4,7.29-6,.54-.46,1.62-.44,1.47-1.73-1.66,1.2-3.26,2.34-4.85,3.5-3.08,2.25-5.75,5-9.11,6.94-1.86,1.06-3.34,2.75-5.08,4s-3.26,2.73-5.07,3.88a40.19,40.19,0,0,0-3.91,3.12c-2.33,1.94-4.34,4.23-7.06,5.74A24.46,24.46,0,0,0,82.35,139a54,54,0,0,1-4.93,4.2,15,15,0,0,1-3.1,2.34c-.72.36-1,1.42-2,1.24l-.65.41c-2.67.64.25-1.41.91-1.77,2-1.08,3.48-2.72,5.27-4a28.75,28.75,0,0,1,2.37-2,12.56,12.56,0,0,0,3.4-3,10.62,10.62,0,0,1,2.48-2.18c3.41-1.9,6.25-4.53,9.24-7,1.88-1.55,3.75-3.12,5.75-4.53,1.38-1,2.6-2.18,4-3.12,1-.69,1.77-1.71,2.78-2.43.55-.4,2.14-1.49,2.5-1.72,1.15-.74,2.21-1.61,3.34-2.38s5-4,5.85-4.69c2-1.63,4.23-3.11,6.33-4.68A65.76,65.76,0,0,0,132,98.8c1-.94,2.06-1.87,3.06-2.78a52.24,52.24,0,0,1,4-3.89c-1.65-.36-3.33.18-5,0-.15,0-.32,0-.47,0-.5-.08-1-.27-1-.83s.51-.76.86-.8a22.27,22.27,0,0,0,5.1-1.68q4.14-1.62,8.26-3.32a7.76,7.76,0,0,0,2.1-.78c.22-.18,1,.14,1.27.54s0,.65-.23.94a80.23,80.23,0,0,0-5.16,7.88c-1.21,1.93-2.92,3.49-4.18,5.41-.37.58-1.18.13-1.76.06-.36,0-.48-.57-.34-1s.24-.89-.16-1.09-.49.4-.74.61c-2.61,2.15-5.32,4.17-8.08,6.12-.74.53-1.66.79-2.23,1.55-.18.24-5,4.1-7.15,5.81s-4.35,3.46-6.46,5.27a56.2,56.2,0,0,1-7.31,5.66,15.2,15.2,0,0,0-2.83,2.13,17.65,17.65,0,0,1-3.27,2.32,41.6,41.6,0,0,0-5.37,4.34c-2.36,2.08-4.82,4.12-7,6.33-2.82,2.85-6.21,4.84-9.24,7.35-2.14,1.78-4.42,3.39-6.71,5a17.52,17.52,0,0,0-1.57,1.52A52.31,52.31,0,0,1,65,155.33a9.62,9.62,0,0,0-1.43,1.57A19,19,0,0,1,59.81,160c-1.45,1-2.62,2.2-4.06,3.16s-2.53,2-3.82,2.92c-1.5,1.1-3,2.14-4.47,3.32a46.76,46.76,0,0,1-4.66,3.68,21,21,0,0,0-2.36,2.14c-.7.6-.55,1.63-.81,2.44a50.06,50.06,0,0,0-2.17,7,.6.6,0,0,1-.78.53c-.49-.17-.24-.52-.1-.88,1-2.42,1.86-4.86,2.79-7.3.13-.33.35-.84,0-.92a1.32,1.32,0,0,0-1.06.62,20.86,20.86,0,0,0-2.46,4.79,11.36,11.36,0,0,0-.81,2.71c-.09,1.06-.83,1.9-.81,3a.41.41,0,0,1-.56.44c-.55-.19,0-.42,0-.61.69-1.9.92-3.93,1.65-5.82.18-.45,1-1,.35-1.42-.37-.26-.79.57-1.23.86a2.35,2.35,0,0,0-1.1,1.72c-.21,1.37-1,2.59-1.13,4ZM140,97.84c3.77-3.48,5.94-8,8.77-12l-.17-.26-11.76,5.09c.08.09.11.14.13.14l2.72,0c1.79,0,2.38.73,1.74,2.4-.4,1-.15,2.32-1.17,3.18A1.32,1.32,0,0,0,140,97.84Zm-5.27.3a2.47,2.47,0,0,0-1.31.94c-.18.2-.62.47-.31.79s.56-.19.68-.34C134.05,99.1,134.76,99,134.68,98.14Z"/><path d="M72.34,146.73a34.18,34.18,0,0,1-5.92,5.08c-1.68,1.13-3.41,2.18-5.06,3.32-1.37,1-2.45,2.44-3.83,3.49-3,2.32-5.64,5.09-8.8,7.2a10.78,10.78,0,0,1-1.38.89c-2.69,1.29-4.24,3.88-6.5,5.65-.16.12-.29.33-.46.38-1.35.34-2.18,1.54-3.39,2.07-.4.17-.45.52-.7.75-1.54,1.41-3.14,2.73-4.73,4.07-1.91,1.62-3.85,3.21-5.74,4.86a33,33,0,0,0-3.19,2.61c1,.73-.11,1.71-.24,1.73s-1.17-1.22-1.3-1.4c-.26-.34.74-.92,1-1.12.85-.66,1.67-1.33,2.52-2,.18-.13.5-.16.37-.49s-.37-.23-.61-.21a29.17,29.17,0,0,1-3.24.16,22.93,22.93,0,0,1,5-1.23c.3,0,.61,0,.9-.2.46-.39,1.5-.5,1.29-1.16s-1,0-1.59,0c-1.68.07-3.36.18-5,.28-.19,0-.42.09-.44-.21s.21-.46.54-.47c1.47-.05,2.94-.06,4.4-.21a9.5,9.5,0,0,0,4.91-1.53c.48-.35.55-1.17,1.34-1.14a.76.76,0,0,0,.09-.44c-.07-.26-.26-.14-.47-.12a75.12,75.12,0,0,0-7.61,1,4,4,0,0,0-1.6.38c-.16.1-.51.16-.58-.17a.44.44,0,0,1,.42-.59l10.39-1.4a2.23,2.23,0,0,0,.59-.06.76.76,0,0,0,.51-.85c-.09-.34-.48-.22-.74-.2-1.62.13-3.23.24-4.85.28s-2.91-.5-4.4-.39c.06-.59.39-.55.71-.47,3.08.72,6.15.13,9.23,0,1.34,0,2.14-.93,3.22-1.33.1,0,.55,0,.41-.4s-.35-.37-.68-.35l-7.47.66c-.48.05-.76-.13-.78-.64s.3-.79.83-.71c2.58.39,5.14-.34,7.72-.13.34,0,.68-.19,1,.08a1.15,1.15,0,0,0,1.59-.32c.57-.8,1.53-1.19,1.91-2.22a4.27,4.27,0,0,1,2.07-1.9,62.76,62.76,0,0,0,5.88-3.87,23.22,23.22,0,0,0,4.58-4c.89-1.12,2.36-1.38,3.24-2.52,1.62-2.07,3.89-3.36,6-4.84,2.46-1.72,5.14-3.23,7.07-5.62.58-.72,1.07.38,1.6,0C72.36,146.74,72.34,146.73,72.34,146.73Z"/><path d="M32.21,186.31a4.54,4.54,0,0,0-.59,1.75c-.05.3-.21.56-.54.47s-.31-.38-.23-.68c.2-.74.22-1.63,1.37-1.53Z"/></g><g id="LeftArrow"><path d="M136.28,186.17c-.18-1.39-1-2.59-1.21-4a2.39,2.39,0,0,0-1.14-1.7c-.45-.28-.88-1.1-1.25-.84-.61.43.19,1,.38,1.42.77,1.88,1,3.9,1.77,5.78.07.19.58.41,0,.62a.43.43,0,0,1-.58-.44c0-1.07-.76-1.89-.87-3a10.8,10.8,0,0,0-.86-2.69,21.06,21.06,0,0,0-2.56-4.74,1.37,1.37,0,0,0-1.08-.6c-.37.09-.13.6,0,.93,1,2.41,2,4.83,3,7.24.15.35.4.7-.09.87a.59.59,0,0,1-.79-.5,50.48,50.48,0,0,0-2.31-6.91c-.28-.82-.15-1.84-.86-2.43a21.92,21.92,0,0,0-2.4-2.09,45.64,45.64,0,0,1-4.74-3.58c-1.46-1.15-3-2.16-4.54-3.23-1.31-.92-2.55-2-3.89-2.84s-2.65-2.15-4.12-3.07a18.58,18.58,0,0,1-3.82-3,9.7,9.7,0,0,0-1.47-1.54,50.7,50.7,0,0,1-5.42-3.8,19.35,19.35,0,0,0-1.61-1.48c-2.32-1.55-4.63-3.12-6.82-4.85-3.07-2.45-6.51-4.36-9.39-7.16-2.23-2.16-4.73-4.15-7.14-6.18A41.59,41.59,0,0,0,67,128.2a18,18,0,0,1-3.31-2.26,14.79,14.79,0,0,0-2.88-2.06,56.9,56.9,0,0,1-7.43-5.51c-2.14-1.77-4.38-3.43-6.57-5.13s-7.08-5.43-7.26-5.66a8.61,8.61,0,0,0-2.27-1.5c-2.8-1.9-5.55-3.86-8.2-6-.26-.2-.32-.82-.75-.59s-.27.72-.14,1.1,0,1-.33,1c-.57.09-1.37.55-1.75,0-1.3-1.89-3.05-3.42-4.3-5.32a77.84,77.84,0,0,0-5.32-7.77c-.24-.29-.52-.58-.25-.93s1-.75,1.26-.58a7.44,7.44,0,0,0,2.12.74c2.76,1.08,5.54,2.12,8.33,3.15a22.24,22.24,0,0,0,5.13,1.57c.35,0,1,.15.87.78s-.51.77-1,.85c-.15,0-.32,0-.47,0-1.65.26-3.33-.25-5,.15a52.57,52.57,0,0,1,4.05,3.81c1,.88,2.1,1.79,3.11,2.71a67.26,67.26,0,0,0,6.19,4.62c2.13,1.53,4.34,3,6.42,4.55.91.7,4.82,3.82,5.95,4.56s2.23,1.59,3.39,2.31c.37.22,2,1.28,2.54,1.67,1,.69,1.77,1.7,2.83,2.37,1.43.91,2.68,2.09,4.07,3,2,1.36,3.93,2.89,5.85,4.4,3,2.39,5.93,5,9.39,6.8a10.72,10.72,0,0,1,2.52,2.12,12.31,12.31,0,0,0,3.47,3c.5.24,2.12,1.79,2.4,2,1.82,1.26,3.38,2.87,5.35,3.91.67.35,3.64,2.33,1,1.75l-.65-.39c-1,.2-1.28-.86-2-1.2A15.29,15.29,0,0,1,90.17,144c-1.65-1.4-3.57-2.52-5-4.09a24.53,24.53,0,0,0-6.56-5.18c-2.75-1.46-4.81-3.7-7.17-5.6a38.67,38.67,0,0,0-4-3c-1.83-1.12-3.41-2.55-5.15-3.78s-3.29-2.9-5.16-3.92c-3.41-1.85-6.13-4.56-9.26-6.74-1.61-1.13-3.24-2.24-4.92-3.4-.12,1.29,1,1.25,1.51,1.7,2.45,2,4.88,4,7.41,5.82,3.13,2.26,5.73,5.21,9.25,7,2,1,3.57,2.66,5.51,3.8A24.81,24.81,0,0,1,71,129.74c2,1.91,4.25,3.59,6.33,5.44a23.75,23.75,0,0,1,3.2,2.77c1.37,1.76,3.37,2.61,5,3.92a43.08,43.08,0,0,1,4.33,3.27,7.68,7.68,0,0,0,1.65,1.26A45.28,45.28,0,0,1,97.81,151c2.1,1.82,4.66,3,6.67,5a50.9,50.9,0,0,0,7.59,6c2.42,1.64,4.73,3.42,7.16,5.05,1.75,1.19,3.28,2.66,5,3.86a28.4,28.4,0,0,1,4.21,3.66c.56.57,1.39.71,1.82,1.46.89,1.54,2.46,2.38,3.77,3.5,1,.86,2.46.94,3.41,1.89a23.29,23.29,0,0,0,3.68,2.79c1.62,1.08,3.19,2.21,4.78,3.33.38.26.56.61.18,1s-.66.27-1-.13-1.06-.77-1.46-1.35a1.26,1.26,0,0,0-1.11-.42c-.55.2-.09.69,0,1,.18.65.44,1.29.67,1.93a6.1,6.1,0,0,1-1.88-3.7,1.4,1.4,0,0,0-1.58-1.1c-.55,0-.17.85-.13,1.31a4.17,4.17,0,0,0,.33.76c.43,1.13.84,2.27,1.26,3.4-.45.14-.61-.06-.68-.28-.44-1.44-1.17-2.77-1.5-4.26a5.34,5.34,0,0,0-3.38-4c.32,1.14.6,2.2.93,3.25.15.51.42,1-.37,1.23ZM26.42,98.56c-1-.85-.82-2.13-1.24-3.17C24.5,93.74,25.07,93,26.87,93l2.71-.11s.05,0,.13-.14L17.85,87.87l-.17.27c2.92,4,5.19,8.45,9,11.85A1.3,1.3,0,0,0,26.42,98.56Zm6.53,3c.12.15.31.73.68.33s-.14-.59-.32-.79a2.47,2.47,0,0,0-1.33-.9C31.92,101,32.63,101.13,33,101.54Z"/><path d="M95.33,147.45a34.49,34.49,0,0,0,6,5c1.71,1.1,3.46,2.11,5.13,3.21,1.39.92,2.5,2.39,3.9,3.42,3.06,2.24,5.74,5,9,7a14.62,14.62,0,0,0,1.4.86c2.72,1.23,4.32,3.79,6.62,5.51.16.11.29.32.46.36,1.36.32,2.21,1.5,3.44,2,.4.16.46.5.71.73,1.57,1.37,3.2,2.66,4.81,4,1.95,1.58,3.92,3.13,5.84,4.74a32,32,0,0,1,3.25,2.55c-1,.74.15,1.7.27,1.71s1.16-1.24,1.28-1.42c.25-.35-.76-.9-1-1.1-.86-.64-1.7-1.29-2.56-1.92-.18-.13-.49-.15-.37-.48s.36-.24.6-.23a29.15,29.15,0,0,0,3.24.09,23.17,23.17,0,0,0-5-1.13c-.31,0-.62.05-.91-.18-.47-.38-1.51-.47-1.31-1.13s1,0,1.59,0l5,.18c.19,0,.43.08.44-.22s-.22-.45-.55-.46c-1.47,0-2.94,0-4.4-.11a9.61,9.61,0,0,1-5-1.43c-.48-.34-.57-1.15-1.36-1.11a.73.73,0,0,1-.1-.43c.07-.27.26-.15.47-.14a72.18,72.18,0,0,1,7.62.85,4,4,0,0,1,1.62.35c.16.1.51.15.58-.18a.46.46,0,0,0-.44-.59l-10.42-1.17a2.67,2.67,0,0,1-.58-.05.75.75,0,0,1-.53-.84c.08-.34.47-.23.73-.21,1.62.09,3.23.16,4.86.17s2.89-.56,4.39-.49c-.08-.58-.41-.53-.73-.45-3.06.79-6.14.26-9.22.21-1.34,0-2.16-.89-3.25-1.27-.1,0-.55,0-.41-.38s.34-.39.67-.37c2.49.18,5,.34,7.48.51.48,0,.76-.16.76-.66s-.32-.79-.84-.7c-2.57.44-5.15-.23-7.72,0-.34,0-.68-.18-1,.09a1.13,1.13,0,0,1-1.59-.29c-.59-.78-1.56-1.15-2-2.17a4.31,4.31,0,0,0-2.11-1.85,64.2,64.2,0,0,1-6-3.75,22.9,22.9,0,0,1-4.66-4c-.92-1.1-2.4-1.33-3.3-2.44-1.66-2-4-3.29-6.12-4.72-2.51-1.66-5.21-3.12-7.2-5.47-.59-.7-1.06.41-1.6,0C95.31,147.46,95.33,147.45,95.33,147.45Z"/><path d="M136.28,186.17a4.92,4.92,0,0,1,.63,1.74c.05.3.21.56.54.46s.31-.39.22-.68c-.22-.74-.26-1.63-1.4-1.51Z"/></g><path d="M18.64,153.49l-.5-1.85q-1.18-3.9-1.72-6.59c-.23-1-.51-2.34-.84-4.07-.4-2-.76-3.66-1.1-4.92l-.42.25-.54.26.08,16.16v.63q0,.84-.75.84a.74.74,0,0,1-.55-.21.66.66,0,0,1-.21-.5v-.63l.08-8.48.09-4.08q.16-7.35.17-12.51v-5.42c0-.25.25-.38.75-.38a3.81,3.81,0,0,1,2,.59,4.15,4.15,0,0,1,1.49,1.59,9.17,9.17,0,0,1,1.13,4.5,12.14,12.14,0,0,1-.84,4.2c-.16.42-.37.9-.63,1.45a4.1,4.1,0,0,1-.67,1.11q.89,3.24,2.56,9.95l2,7.56a1.7,1.7,0,0,1,0,.47,1.33,1.33,0,0,1-.15.65.47.47,0,0,1-.44.27A1,1,0,0,1,18.64,153.49Zm-4-19.11A7.9,7.9,0,0,0,15.74,133a6.6,6.6,0,0,0,.51-1.77,12,12,0,0,0,.21-2.1,11.35,11.35,0,0,0-.59-3.52,4.26,4.26,0,0,0-.88-1.71,1.75,1.75,0,0,0-1.3-.65H13.6a.16.16,0,0,1-.12,0v11.85C13.7,135.18,14.08,134.91,14.61,134.38Z"/><path d="M34,154.16a.86.86,0,0,1-.12-.5v-.51a2.52,2.52,0,0,0,0-.46q0-5.74-.42-14.57H31.58a20.54,20.54,0,0,0-2.94.12c0,2,.11,4.58.33,7.61.26,3.44.38,6,.38,7.6,0,.42-.15.63-.46.63s-.63-.2-.63-.59c0-1.37-.09-3.27-.19-5.69s-.19-4.47-.27-6.15q-.8-10-.8-19.16c0-.27.18-.42.55-.42a.51.51,0,0,1,.39.15.42.42,0,0,1,.11.4v3.11c0,.75.07,2.18.21,4.28l.08,1.43c.06,1.57.09,2.51.09,2.81v2.06c0,.73.07,1.09.21,1.09l1.59-.08.84-.08c1.4-.11,2.2-.17,2.4-.17l0-.09q0-1.84-.21-7.09t-.21-7.14c0-.34.2-.51.59-.51a.84.84,0,0,1,.5.15.46.46,0,0,1,.21.4q0,8.19.3,18T35,152.9v.59a1.13,1.13,0,0,1-.15.59.43.43,0,0,1-.39.25A.57.57,0,0,1,34,154.16Z"/><path d="M130.06,153.74c-.34-.17-.5-.36-.5-.59a2.11,2.11,0,0,1,.33-.83,1.57,1.57,0,0,0,.3-.84l-.13-3.7-.3-11.47-.08-5.08c0-3.11-.1-5-.21-5.84a5.64,5.64,0,0,0-.33-1,3.83,3.83,0,0,1-.3-1.13c0-.67,1.06-1,3.19-1h.21a5.21,5.21,0,0,1,3.7,1.47,9.81,9.81,0,0,1,2.18,3.57,22.4,22.4,0,0,1,1,4.33c.11.84.21,2.12.29,3.86v1.3a25.65,25.65,0,0,1-.69,5.65,27.05,27.05,0,0,1-1.95,5.69,12.27,12.27,0,0,1-1.95,3,14.91,14.91,0,0,1-2.29,2.12,3.56,3.56,0,0,1-1.47.77A2.22,2.22,0,0,1,130.06,153.74Zm1.64-1.89a8.54,8.54,0,0,0,2.77-2.33,13,13,0,0,0,1.93-3.38,20.82,20.82,0,0,0,1-3.55,33.82,33.82,0,0,0,.59-3.72c.08-1,.12-2,.12-2.89q0-12.27-6.76-12.27c-.59,0-.88.16-.88.46,0,1,.06,2.15.17,3.49s.17,2.53.17,3.49q0,2.31.33,8,.3,5,.3,8v4.7Z"/><path d="M148.67,153.7a.76.76,0,0,1-.53-.21.62.62,0,0,1-.23-.46c0-.36.24-.55.71-.55h1.64q0-4.83-.29-12.18-.18-5.88-.34-9.24l0-2.14v-2.77c0-1.4,0-2.3-.08-2.69h-1.47c-.28,0-.42-.19-.42-.59a.68.68,0,0,1,.33-.59,5.78,5.78,0,0,1,1.56-.12h1.18c.42,0,.95,0,1.59,0a.92.92,0,0,1,.55.15.5.5,0,0,1,.21.44.91.91,0,0,1-.13.46.41.41,0,0,1-.38.21,2.47,2.47,0,0,1-.5,0h-.92a1,1,0,0,0-.51.08l-.08.17c0,2.19.18,6.59.54,13.23q.51,9.19.51,13.23v1.18c0,.36-.05.74-.05,1.13h1.52c.64,0,1,.2,1,.59a.72.72,0,0,1-.19.48.5.5,0,0,1-.39.23h-2.27C150.55,153.72,149.7,153.7,148.67,153.7Z"/><path d="M67.49,196.22a.5.5,0,0,1-.2-.41l1.49-3.41a38.13,38.13,0,0,0,2.43-6.76,27.48,27.48,0,0,0,.79-6.57c0-2.69-.58-4-1.74-4a1.36,1.36,0,0,0-.6.57,2.27,2.27,0,0,0-.3.86c-.07.67-.23,1-.47,1a.36.36,0,0,1-.37-.28v-.28a3.14,3.14,0,0,1,.65-2,1,1,0,0,1,.81-.45,2.36,2.36,0,0,1,1.89.87,3.27,3.27,0,0,1,.77,2.12l0,.06c0,.37,0,.72,0,1s0,.63,0,1a30.71,30.71,0,0,1-.63,5.62,24.2,24.2,0,0,1-1.5,5.22l-.81,1.82-.62,1.4c-.32.73-.53,1.24-.64,1.54a.79.79,0,0,0-.09.31c0,.09.06.14.17.14a20,20,0,0,1,3.36-.31q.39,0,.39.45c0,.24-.08.36-.25.36l-2,.11c-1,.1-1.72.14-2.1.14A.75.75,0,0,1,67.49,196.22Z"/><path d="M79.32,196.2a1.41,1.41,0,0,1-.44-.22q-1.36-1-1.79-5.21c-.13-1.3-.22-2.6-.26-3.89s-.07-2.92-.07-4.9v-2.24c0-.67,0-1.42,0-2.24a6.51,6.51,0,0,1,.09-1.18,1.22,1.22,0,0,1,.12-.46,4.65,4.65,0,0,1,.38-.43,2.08,2.08,0,0,1,1.4-.36q2.52,0,3,4.48a73.42,73.42,0,0,1,.65,9.88c0,1.14,0,2-.09,2.74a11.22,11.22,0,0,1-.47,2.44,3.06,3.06,0,0,1-.48.94,2.19,2.19,0,0,1-.7.57,2.08,2.08,0,0,1-1,.23A1.59,1.59,0,0,1,79.32,196.2Zm1.89-1.81a11.78,11.78,0,0,0,.45-2.64c0-1,.08-1.73.08-2.07,0-.6-.06-1.9-.17-3.92s-.17-3.28-.17-3.83v-.68a10.59,10.59,0,0,0-.39-2.66,8.29,8.29,0,0,0-.52-1.49,3,3,0,0,0-.74-1,1.85,1.85,0,0,0-1.17-.39,1.11,1.11,0,0,0-.94.34,1.63,1.63,0,0,0-.27,1,3,3,0,0,0,0,.45V178l.06,2.6.05,2.63V186c0,1.08.06,2.24.17,3.47a19.54,19.54,0,0,0,.73,4.2,4.24,4.24,0,0,0,.68,1.51,1.23,1.23,0,0,0,.94.56C80.54,195.7,80.93,195.26,81.21,194.39Z"/><path d="M85.44,196a.55.55,0,0,1-.12-.42.41.41,0,0,1,.07-.18.22.22,0,0,1,.16-.1h.81l.78,0a1.06,1.06,0,0,0,.58-.1c.08-.06.12-.22.12-.46q0-6.53-.61-16.13v-.89l0-.9a1.54,1.54,0,0,0-.09-.63.45.45,0,0,0-.33-.24,5.56,5.56,0,0,0-.87-.05l-.31,0-.34,0c-.31,0-.47-.1-.47-.31a.25.25,0,0,1,.15-.22,1.27,1.27,0,0,1,.41-.11c.26,0,1-.06,2.21-.06a.42.42,0,0,1,.32.14.45.45,0,0,1,.13.31v.87c0,.58,0,1.46.08,2.63l.06,2.66c0,.39.06,1.71.19,3.95.12,2.43.17,4.24.17,5.43v.36l.09,1.54,0,1.63,0,.22,0,.2.11.08.64-.05a5.85,5.85,0,0,1,.62,0q.87,0,.87.39c0,.26-.21.39-.62.39L88,196c-.75,0-1.5.06-2.27.06A.42.42,0,0,1,85.44,196Z"/><path d="M95.18,196.83a2.31,2.31,0,0,1-.59-1,6.94,6.94,0,0,1-.42-2.21,30.45,30.45,0,0,1,.93-7.78l.16-.48a3.63,3.63,0,0,0,.23-1.06,2.91,2.91,0,0,0-.11-.59l-.31-1-.23-.61a21.79,21.79,0,0,1-1.28-5.63,3.1,3.1,0,0,1,.36-1.54,1.3,1.3,0,0,1,1.29-.76h.5l.25.11a1.66,1.66,0,0,1,.51.31.62.62,0,0,1,.19.28A7.52,7.52,0,0,1,97.2,178a24.59,24.59,0,0,1-.56,4.42l-.4,1.91a3.12,3.12,0,0,0,.23.7c.07.18.11.29.11.3a30.9,30.9,0,0,1,1.85,9.44,1.72,1.72,0,0,1,0,.34l-.06.33,0,.14a3.44,3.44,0,0,1-1,1.3,2.13,2.13,0,0,1-1.34.38A1.23,1.23,0,0,1,95.18,196.83Zm1.37-18.94a7.84,7.84,0,0,0-.33-2.43c-.17-.47-.4-.7-.68-.7H95.4a.28.28,0,0,1-.14,0,.64.64,0,0,1-.36-.08,2.15,2.15,0,0,0-.64,1.79,14,14,0,0,0,.26,2.12c.18,1,.38,2,.62,2.83a3.25,3.25,0,0,0,.6,1.46A16.79,16.79,0,0,0,96.55,177.89Zm.8,18.2a2.71,2.71,0,0,0,.41-1.57A25,25,0,0,0,96.69,188l-.19-.86a6.4,6.4,0,0,0-.56-1.74,8.81,8.81,0,0,0-.82,3.43,46.41,46.41,0,0,0-.3,5,4.3,4.3,0,0,0,.39,1.49l0,.08a1.76,1.76,0,0,0,.28.87.73.73,0,0,0,.62.39A1.45,1.45,0,0,0,97.35,196.09Z"/></g><g id="FoxHead_copy" data-name="FoxHead copy"><polygon id="BG_RightCheek" class="cls-1" points="86.86 75.76 100.27 53.17 114.71 52.17 124.27 53.34 114.17 70.84 90.46 105.08 87.64 105.08 86.86 75.76"/><polygon class="cls-1" points="33.86 55.96 59.5 55.38 63.86 58.59 74.87 70.54 76.81 74.01 76.72 105.36 74.72 105.08 39.36 63.76 32.86 56.51 33.86 55.96"/><path id="FoxEye" d="M63.19,66.08l-.66,1.61c-.09.19-1.35,1.64-1.47,1.81l-.89,2a.72.72,0,0,1-.92,0l-1.92-2.4-1.52-2.84a.29.29,0,0,1,.23-.44l2.44.3c1-.25,1.26,0,2.49-.21l2-.3A.26.26,0,0,1,63.19,66.08Z"/><path id="FoxEye-2" data-name="FoxEye" d="M108.58,63.11l-.71,1.59c-.1.19-.4,1.6-.53,1.77l-2.27,2a.36.36,0,0,1-.6,0l-3.27-5.34a.29.29,0,0,1,.24-.44l2.43.38c1-.22,1.25,0,2.49-.13l2-.25A.27.27,0,0,1,108.58,63.11Z"/><path id="Fill" class="cls-2" d="M46.14,55.2l14.91.21,15.07,16.5.6,33.45,10.92-.28L89.43,81a31.63,31.63,0,0,1,3-11.29l7.62-16,1.3-1.3,17.37.36-7-29.54L105.86,5.55,95.55,28.94,60.89,30.89,51.74,7.57l-3.3,16.7a36.81,36.81,0,0,0-.68,5.82l-.93,24.53"/><g id="Outline"><path d="M112.14,35.38l-7.61-6.89a3.62,3.62,0,0,1-.5-.71l.45-.11.09.06-.14,0,0-.09-.42.13a1.32,1.32,0,0,1-1.33-.77c-1-1.5-2.81-2.16-3.85-3.64-.52-.73-.87-.26-1.1.37-.38,1-1.51,5.76-1.35,3a19.53,19.53,0,0,1,2.08-5.65c.69-1.1.76-2.49,1.31-3.7,1.37-3,2.41-6.21,4-9.17a12.52,12.52,0,0,0,.83-2.75c.27-1,1.11-.8,1.89-.81s.5.56.59,1c.34,1.52.25,3.26.8,4.54.79,1.82.71,3.82,1.76,5.56.72,1.19,1,1.29,1.25,2.71.11.73.72,2.44.81,3.15a30.39,30.39,0,0,1,1.59,4.59,2,2,0,0,0,0,.59c1,2.64,1,5.48,1.82,8.13.48,1.57,1,3.15,1.42,4.72A47.44,47.44,0,0,1,118.3,48a4.34,4.34,0,0,0,.6,1.62c0,.07,0,.18.09.23.7.54-.54,2.16,1.27,2.15,1,0,2,.39,3,.12a2.3,2.3,0,0,1,2.67.73c.22.28.35.48,0,.84a28.93,28.93,0,0,0-6,8.83c-.36.85-1,1.5-1.38,2.29a103.09,103.09,0,0,1-6.88,11c-2.22,3.32-4.91,6.29-6.92,9.77-.92,1.6-2.12,3-3.06,4.65a14.64,14.64,0,0,1-1.3,1.42c-2,3.18-3.67,6.53-6,9.49-.84,1.06-1.31,2.41-2.48,3.27-.32.24.16.35.31.5-.43,1.38-2.4,4.2-3,5.27-.77,1.52-1.73,2.94-2.46,4.49a1.24,1.24,0,0,1-2.16,0c-1.32-1.85-3.31-2.71-5.11-3.88a15.17,15.17,0,0,1-1.92-1.43,20.69,20.69,0,0,0-3.79-2.92,1.47,1.47,0,0,1-.51-.7c-.86-2.08-2.52-3.57-3.85-5.31-2.31-3-4.89-5.84-7.19-8.9A52.13,52.13,0,0,0,57,85.66c-2.23-2.18-4.37-4.44-6.47-6.74s-4.28-4.84-6.25-7.43c-1.84-2.43-3.19-5.25-5.61-7.24A2.68,2.68,0,0,1,37.87,63c-.29-1.11-1.27-1.55-2-2.27-.9-.92-1.76-1.88-2.65-2.81-.26-.27-.56-.5-.84-.75s-.88-.17-.75-.92a1.35,1.35,0,0,1,1.05-1c2,0,3.86-.7,5.9-.33A32.7,32.7,0,0,0,44.3,55c.36,0,.78-.1.79-.46,0-.86.59-1.56.59-2.41a31.2,31.2,0,0,1,1-7.51,4.6,4.6,0,0,0,.15-1.07,34.16,34.16,0,0,1,.21-3.77,51.51,51.51,0,0,0,.69-5.35c0-2.82.72-5.57.82-8.35s.58-5.26.81-7.88c.16-1.84.36-3.71.35-5.52,0-1.42.84-2.62.53-4.08-.16-.77.57-1.24,1.45-1a2.5,2.5,0,0,1,1.71,2c.52,2.08,1.48,4,2.19,6s1.45,4,2.35,5.94a32.63,32.63,0,0,1,1.87,4.09A13.91,13.91,0,0,0,61,28.77a1.77,1.77,0,0,0,2.43.86c1.76-.87,3.66-.48,5.49-.66a14.63,14.63,0,0,1,1.87.08c3.2.1,6.41-.14,9.59,0,2.88.15,5.71-.22,8.56-.17,1.75,0,3.46-.31,5.21-.18.84.07,1.78-.91,2.31-2.08,1,.16-1.27,3.85-2,3.89-4.89.24-9.78.56-14.67.5-3.29,0-6.59,0-9.88-.28a39,39,0,0,0-6.72.31c-.94.1-1.89-.19-2.84.21a.62.62,0,0,1-.72-.85,1.07,1.07,0,0,0-.06-1.07,7.4,7.4,0,0,1-1.08-3.15c-.09-.45-.19-.84-.66-.95s-.69.22-.93.52c-1.41,1.79-2.9,3.52-4.2,5.39-.93,1.33-2.27,2.29-3.1,3.7A2.86,2.86,0,0,0,49,36.47a21.88,21.88,0,0,1-.81,5.08A17,17,0,0,0,48.24,44c-.19,3.27-1.33,6.43-1.06,9.73,0,.4-.5.47-.35.89.7.32,1.37-.08,2-.17,3.43-.47,6.9.12,10.28-.28,2.28-.28,3.21,1,4.07,2.31a49.42,49.42,0,0,0,3.47,4.63,60.51,60.51,0,0,0,5.66,6.39c1.42,1.3,2.59,3.11,4.76,3.48.55.1.51.69.52,1.12,0,1.92,0,3.84-.09,5.76a13.44,13.44,0,0,0,0,3.8c.33,1.35-.32,2.7-.13,4a31.56,31.56,0,0,1,.06,6.22c-.17,3.2.43,6.4-.07,9.6-.14.89.13,1.85,0,2.8-.1.65.46,1,1.08.89,1.84-.32,3.71-.25,5.55-.44a9.14,9.14,0,0,1,2.34.19,49.34,49.34,0,0,0,1.08-8.8c.19-3.14.1-6.28,0-9.42-.06-2.83-.22-5.67-.52-8.49,0-.5.1-1.08-.8-.75-.4.14-.76-.26-1-.6s.17-.59.31-.84a26.58,26.58,0,0,1,3.79-5.82l0,.09v-.07a37.38,37.38,0,0,1,3.79-6.18,46.91,46.91,0,0,0,5.39-8.74,10.51,10.51,0,0,0,1.4-2.68c.1-.45.67-.74,1.29-.81a71.68,71.68,0,0,1,7.75-.37,33.82,33.82,0,0,1,8,.44c.63.14.77,0,.72-.68-.22-3-1.25-6-1.53-9-.15-1.62-1.17-2.93-1.22-4.53,0-.47-.45-.53-.76-.72-.75-.45-1.78-.58-2-1.65.23,0,.52-.07.35-.41,0-.11-.32-.24-.36-.2C111.87,34.94,112.16,35.16,112.14,35.38Zm-6.31-29,.08,0h-.11ZM76.34,92.27h0v-.42h.05s-.06,0-.05,0S76.33,92.14,76.34,92.27ZM53.41,26.7c0,.06.09.14,0,0l.08,0Zm53.22-11.95,0,0,.07,0,0,0Zm-.39-1.15c-.81.2-.81.2-.17,1.1.06-.42.11-.77.14-1.13l0-.43-.1,0ZM52.52,23.31c-.49-.3-.79-.1-.94.38-.07.24.06.33.35.34.57,0,.72-.23.56-.74l.21-.24L52.56,23Zm2,3c.89-.18,1-.84,1-1.59-.28.55-1.08.81-.95,1.62l-.05.06ZM51,31.66c-1-.79-1.06.35-1.44.78-.14.16-.33.48-.05.64s.52-.09.6-.39A2.21,2.21,0,0,1,51,31.63c.13-.23.67-.22.37-.74C51,31.06,51.06,31.37,51,31.66Zm54-15.94c-.32-.14-.67-.47-1-.1A1.41,1.41,0,0,0,104,17.3a5.07,5.07,0,0,0,.68,1.71c.1.13.21.28.39.16a1,1,0,0,0,.33-.36c.14-.33-.07-.28-.31-.27-.42,0-.36-.27-.22-.48.8-1.23-.38-.68-.75-.85.19-.58.85-.87.92-1.52.71.17.66-.28.51-.69-.08-.22-.06-.69-.46-.57s-.29.51-.16.83C105,15.41,105,15.57,105.07,15.72Zm-52.3,9.79c-.07-.17-.09-.41-.37-.32,0,0-.08.14-.06.2.1.28.29.16.46.09-.1.23-.2.51,0,.69s.38,0,.52-.2a2.82,2.82,0,0,0,1-1.87C53.5,24.36,52.91,24.68,52.77,25.51Zm1.73-3.2c-1.34-.15-.61-1.5-1.17-2.13-.45.45.14,1.19-.63,1.66,0-.69-.48-1.16.2-1.78.42-.38.26-1-.56-.68l.13-.41-.18,0,.06.44a.81.81,0,0,1,.07.22l0,0c-.45-.12-.41.58-.83.5l0,.5h.09l-.05-.51c.58.4.2,1.13.55,1.61l-.13.44.18,0-.08-.45c.31.42.74.7.81,1.32.13,1.08.55,0,.87.05.62.19.8-.18.66-.75ZM72.38,69.84a11.83,11.83,0,0,1-1-.79c-1.56-1.49-2.75-3.31-4.2-4.89s-2.55-2.95-3.79-4.45-2.1-3.35-4.34-3.65c-.77-.11-1.47.31-2.19.11-1.91-.53-3.8.13-5.7,0a41.34,41.34,0,0,0-6.56.52c-3.15.35-6.32-.18-9.54.09a6.1,6.1,0,0,0,.67,1.43c2.16,2.65,4.37,5.26,6.56,7.89a37.21,37.21,0,0,1,3.42,4.67,31.48,31.48,0,0,0,4.51,5.57c1.25,1.29,2.52,2.6,3.79,3.89s2.62,2.85,3.85,4.35c1.05,1.27,2.51,2.2,3.51,3.5q4.66,6,9.67,11.82c1.22,1.4,2.38,2.85,3.61,4.24.25.29.62.75,1,.59.55-.22.11-.71.08-1.1a3.76,3.76,0,0,1-.06-1,31.57,31.57,0,0,0,.18-7.14c0-.56,0-1.14,0-1.71q.21-5.26.25-10.54c0-2.35-.12-4.7-.14-7.05a5.52,5.52,0,0,0-1.93-4.66,9.74,9.74,0,0,1-1.69-1.77l0,0ZM88,105.06c.89,0,1.29,0,1.69-.63A5.42,5.42,0,0,1,92,101.88a3.3,3.3,0,0,0,1.29-1.61,41.09,41.09,0,0,1,2.38-4.19c2.28-3.38,4.62-6.73,7-10,1.57-2.2,3-4.52,4.58-6.69,1.72-2.32,3.42-4.66,5.22-6.94a42.32,42.32,0,0,0,3.79-6.1c2.17-3.94,4.34-7.89,6.75-11.69.26-.41.27-.6-.33-.73-1.53-.34-3.15.13-4.58-.25a32.46,32.46,0,0,0-5.93-.58,28.89,28.89,0,0,0-7.77.05c-1.22.24-2.71.06-3.49,1.32-1.31,2.14-2.46,4.38-3.83,6.5-2.38,3.67-4.92,7.23-7.19,11a7.69,7.69,0,0,0-1.39,4.76c.3,2.82.49,5.64.62,8.46.16,3.29.1,6.58.12,9.87,0,.37-.08.74-.11,1.11-.19,2.14-.29,4.29-.58,6.42C88.38,103.3,88.82,104.16,88,105.06Zm16.15-79.3c.26.55.37,1.3,1,1.11a1.94,1.94,0,0,0,1.32-1.75C105.58,25.05,105.47,27.19,104.14,25.76Zm1.63-18.35c.26.87-.29,2,.79,2.77A6.06,6.06,0,0,0,105.77,7.41ZM84.35,108.47c-.46.51-1.28.15-1.61.86-.09.18,0,.32.22.33a1.6,1.6,0,0,0,1.45-.94S84.39,108.65,84.35,108.47Zm24.39-87.41c0-.21,0-.57-.2-.5-.57.16-.59.78-.79,1.22-.12.25.15.27.27.26C108.59,22,108.69,21.51,108.74,21.06ZM56.66,22.92c-.3.6-.62,1.09.07,1.53.19.12.39.22.5,0C57.49,23.83,57.14,23.42,56.66,22.92ZM53.3,17c-.66.4-1.06.68-.74,1.28.08.16.22.46.43.26C53.4,18.21,53.19,17.69,53.3,17Zm53.16,11.71c.58-.46,1.16-.58,1.13-1.31,0-.17-.08-.38-.27-.32-.48.15-.51.69-.77,1C106.49,28.23,106.51,28.37,106.46,28.75Zm8.25,7.75L114,34.7C113.31,35.7,113.68,36.08,114.71,36.5ZM82.88,108a2.71,2.71,0,0,0,1.21-1.48A1.27,1.27,0,0,0,82.88,108Zm27.58-81.35c-.29.53-.41.95,0,1.35.1.11.34.21.41,0A1.21,1.21,0,0,0,110.46,26.66ZM52.85,14.13c-.73.57-.49,1.11-.46,1.59,0,.12.22.22.39.08.46-.37-.23-.73,0-1.11C52.82,14.6,52.8,14.47,52.85,14.13Zm53,5.21c-.27.47-.9.41-.64,1a1.44,1.44,0,0,0,.27.34A1.1,1.1,0,0,0,105.85,19.34ZM87.34,107c-1,.12-1,.6-.86,1.22ZM53.9,17.11a.9.9,0,0,0,0-1.49A2.14,2.14,0,0,0,53.9,17.11Zm52.58-4.62c0-.39.41-1-.34-1.22C105.92,11.81,106.41,12.08,106.48,12.49Zm3.22,11.6a2.16,2.16,0,0,0-.44,1.6C109.45,25.27,110,25,109.7,24.09Zm-2.49-1.31c0-.2-.11-.35-.26-.3a.71.71,0,0,0-.4.4c-.06.22.15.38.37.37S107.12,22.94,107.21,22.78ZM84.45,110.46c.48-.38.93-.54.91-1.15C84.75,109.4,84.5,109.7,84.45,110.46ZM104.21,20.2a.62.62,0,0,0-.29.84c0,.18.2.15.29.08A.53.53,0,0,0,104.21,20.2ZM107,29.27c.68.07.92-.15,1.06-.67C107.54,28.53,107.35,28.81,107,29.27ZM50.32,25.33c-.34.39-.47.68-.24,1a.31.31,0,0,0,.31,0C50.61,26,50.49,25.72,50.32,25.33Zm53.09-6.86c0,.36-.23.73.07,1,0,0,.28,0,.32-.09C104,19,103.78,18.73,103.41,18.47ZM50.58,23.8a1.56,1.56,0,0,0,0-1.23C50.25,22.93,50.07,23.23,50.58,23.8Zm60,5.52c-.22,0-.23.22-.23.36s.08.41.36.38a.28.28,0,0,0,.25-.35C111,29.51,110.87,29.31,110.6,29.32Zm-3.45-8.64c.37-.3.59-.56.47-1A1,1,0,0,0,107.15,20.68Zm-3.67.6c-.42.29-.52.57-.36.92,0,.05.15.05.23.07C103.66,22,103.58,21.7,103.48,21.28ZM51.89,11a1.81,1.81,0,0,0,.11-.41c0-.22-.12-.58-.39-.4S51.54,10.7,51.89,11Zm54.67,10.59c0-.29-.14-.33-.35-.34s-.33,0-.36.23a.37.37,0,0,0,.3.45C106.39,22,106.49,21.8,106.56,21.61ZM52.14,30.18a.47.47,0,0,0,.45-.33c0-.08,0-.27-.07-.29a.36.36,0,0,0-.49.21A.31.31,0,0,0,52.14,30.18Zm54.37-3.44c-.38.29-.73.47-.59,1C106.41,27.61,106.55,27.32,106.51,26.74Zm5.51,6.2c-.12-.13-.17-.27-.26-.29a.28.28,0,0,0-.35.25c0,.16,0,.38.22.33S111.87,33.06,112,32.94ZM56.25,21.49c-.06-.06-.16-.23-.28-.24-.31,0-.24.24-.23.41s.12.32.31.28S56.28,21.75,56.25,21.49Zm-.43-1.38c-.11-.12-.2-.3-.32-.32s-.21.19-.21.32a.26.26,0,0,0,.3.28C55.67,20.39,55.72,20.24,55.82,20.11Zm22.54,86.71a.22.22,0,0,0-.18.34.57.57,0,0,0,.33.3.22.22,0,0,0,.26-.29A.4.4,0,0,0,78.36,106.82ZM50.54,27.52a1.2,1.2,0,0,0-.19.29c0,.14,0,.27.2.18a.48.48,0,0,0,.15-.3S50.61,27.59,50.54,27.52ZM52.19,11.6c-.07-.22-.12-.41-.31-.35s-.15.25-.15.38,0,.38.21.28S52.13,11.69,52.19,11.6Zm50.35,11c-.18,0-.22.1-.22.22a.41.41,0,0,0,.35.43s.19-.13.21-.22C102.92,22.73,102.76,22.6,102.54,22.55Zm10.33,7.8c.15,0,.24-.06.22-.19a.44.44,0,0,0-.16-.29c-.11-.09-.22,0-.25.11A.28.28,0,0,0,112.87,30.35ZM85.8,110.94c0-.28.5-.16.25-.64C85.91,110.51,85.6,110.54,85.8,110.94ZM51.09,15.32a.45.45,0,0,0,.13-.54s-.17,0-.19,0A.5.5,0,0,0,51.09,15.32Zm34.4,96.79-.19-.21a2,2,0,0,0-.33.32.43.43,0,0,0,.21.22C85.41,112.5,85.42,112.3,85.49,112.11ZM103.4,24.46c.16,0,.24-.07.21-.21a.44.44,0,0,0-.19-.28.35.35,0,0,0-.28.14C103.08,24.3,103.25,24.39,103.4,24.46ZM81.72,109c-.11-.14-.17-.28-.26-.3s-.3.13-.32.29.1.19.16.29ZM48.86,28a1.3,1.3,0,0,0,.17-.33s-.11-.14-.14-.13a1,1,0,0,0-.26.15Zm3-11.48.26.19c0-.06.11-.16.09-.18a1.25,1.25,0,0,0-.24-.21Zm54.84,2.36c.11-.42-.05-.43-.15-.4a.36.36,0,0,0-.19.24c0,.09.07.19.11.29ZM54.47,21.07a2.9,2.9,0,0,0-.51-.28c-.11,0-.26.07-.18.22a.39.39,0,0,0,.25.19C54.13,21.22,54.24,21.15,54.47,21.07Zm-3.95,8-.18-.29a1.79,1.79,0,0,0-.2.28c-.07.13,0,.24.13.22S50.43,29.15,50.52,29.07Zm52.66-12.38a1.54,1.54,0,0,0-.1.33c0,.05.08.11.12.17a1.08,1.08,0,0,0,.13-.29S103.25,16.78,103.18,16.69Zm-49.81-3c0,.07-.11.14-.1.2s.07.13.11.2.11-.14.11-.2S53.41,13.79,53.37,13.72Zm50.88,10a1.63,1.63,0,0,0,.07-.33s-.1-.08-.16-.12a1.66,1.66,0,0,0-.1.29S104.16,23.65,104.25,23.72Zm.61-.93-.11-.15-.08.06.11.15Zm-2.71-1.27a1.43,1.43,0,0,0-.07.32s.11.06.17.09a1.25,1.25,0,0,0,.12-.3S102.25,21.57,102.15,21.52ZM86,108.7s-.06-.09-.08-.09a.68.68,0,0,0-.2.07s0,.09.07.08Zm18.92-94.88,0-.09-.17.07,0,.07Zm-.57.45c0-.08,0-.17,0-.22s-.19-.08-.23,0a.25.25,0,0,0,.06.2S104.25,14.28,104.32,14.27Zm3.17,9.9c-.07,0-.13-.11-.2-.11s-.12.07-.18.11.12.11.18.11S107.42,24.21,107.49,24.17ZM105.81,11s0-.08-.07-.09,0,0-.08.06l.11.12ZM54.6,18.25l0,.11.09,0s0-.07,0-.11S54.63,18.26,54.6,18.25Zm50.57-7.42c0,.08-.06.14-.07.21s.05.06.08.09.1-.11.1-.16S105.22,10.88,105.17,10.83Zm-1.44,4.26a.35.35,0,0,0,0-.11l-.08,0a.61.61,0,0,0,0,.11S103.7,15.08,103.73,15.09ZM50.24,26.9s0,.06,0,.07a.18.18,0,0,0,.1,0l0-.14ZM105.76,5.62l.1-.07-.07-.09-.13.12Zm-24,101.94,0,.09s.07,0,.08,0a.11.11,0,0,0,0-.08S81.81,107.57,81.78,107.56Zm24.9-94.23s.06,0,.07-.05a.34.34,0,0,0,0-.1l-.12.06Zm-2-.35,0,.09h.16a.21.21,0,0,0,0-.1Zm1-1.27,0,.08,0-.08ZM53.32,14.83l.07.05,0-.08Zm.38,2.77-.08-.08s-.08.05-.08.08.05.06.07.09Zm48,3.11s.07-.05.07-.07,0-.06-.06-.09-.08.05-.08.08S101.65,20.69,101.68,20.71Zm5.55,4.66,0,.07.07,0Z"/><path d="M76.83,43.52a.54.54,0,0,1,.47-.71c.32,0,.48.29.54.59.32,1.55.25,3.22,1.36,4.56a.66.66,0,0,1-.3,1c-.49.25-.61-.21-.81-.52A11.37,11.37,0,0,1,76.83,43.52Z"/><path d="M78,39.36c-.12-1.24-.24-2.42-.34-3.61,0-.24-.09-.53.23-.63a.5.5,0,0,1,.67.4c.17,1.44.82,2.84.54,4.32-.07.37-.23,1-.66.95-.6,0-.45-.67-.48-1.11A2.13,2.13,0,0,1,78,39.36Z"/><path d="M84.33,35.4c.39.12.63.31.51.81a6.64,6.64,0,0,0,0,3.4.76.76,0,0,1-.44,1c-.42.1-.53-.36-.68-.72-.62-1.48.3-2.84.27-4.27C84,35.46,84.12,35.35,84.33,35.4Z"/><path d="M85.16,48.48c-.31,1.66,1.19,2.89.74,4.5-.07.24.35.57-.11.74a.69.69,0,0,1-.68-.19c-.27-.2-.32-.34-.17-.7a1.82,1.82,0,0,0-.3-1.75C83.76,49.75,83.78,49.68,85.16,48.48Z"/><path d="M92.49,35.65c-.57,1.39.22,2.48.07,3.62a2.74,2.74,0,0,1-.28,1.14c-.1.16-.27.13-.42,0a.88.88,0,0,1-.3-1.12c.35-.59-.07-1-.17-1.52a2.88,2.88,0,0,1,.1-2.14c.14-.25.24-.63.57-.55A.55.55,0,0,1,92.49,35.65Z"/><path d="M72.61,43.68c0-.51-.07-.9.32-1.17s.67-.32.69.22a7.5,7.5,0,0,0,1,3.51c.12.22.27.63-.25.8a.61.61,0,0,1-.84-.3C73.16,45.69,72.88,44.61,72.61,43.68Z"/><path d="M70.21,38.83c-.75,1.29,0,2.12.41,3.08s-.28,1.83-.29,2.79c0,.28-.52.23-.48-.05C70.05,43,69.4,41.5,69,40A1.61,1.61,0,0,1,70.21,38.83Z"/><path d="M81,48.26A2.66,2.66,0,0,1,81.5,47c.21-.23.4-.7.75-.5s.1.55-.09.82a.85.85,0,0,0,.09,1.23c.72.7.45,1.67.64,2.51a.38.38,0,0,1-.31.47c-.12,0-.39-.15-.39-.24A6.54,6.54,0,0,0,81,48.26Z"/><path d="M80.13,34c.17-.44-.21-1,.35-1.17.17-.06.51-.06.58,0a1.18,1.18,0,0,1,.23,1.25c-.3.68.18,1.33.33,2,.09.44.28,1-.33,1.16s-.68-.46-.76-.92C80.39,35.53,80.26,34.73,80.13,34Z"/><path d="M73.12,34.6c.33.11.65.4.45.72a3.11,3.11,0,0,0,0,2.85c.09.28.31.68-.21.82s-.7,0-.79-.52c-.21-1.1-.84-2.19-.13-3.32C72.62,34.91,72.75,34.63,73.12,34.6Z"/><path d="M65.86,37.09c.08-.25.16-.57.29-.88s.24-.71.68-.57.12.48,0,.77a4.46,4.46,0,0,0,.48,2.72c.16.39.54.91-.14,1.15s-.7-.36-.87-.84C66.08,38.7,66.08,37.92,65.86,37.09Z"/><path d="M85.84,42.46c-.38.83.09,1.81-.32,2.66-.14.29-.32.81-.78.65s-.15-.57-.09-.86c.2-.87-.27-1.79.26-2.67.19-.3.22-.64.62-.55S85.87,42.11,85.84,42.46Z"/><path d="M96.25,35.31c0,.07,0,.6-.37.61a.79.79,0,0,1-.86-.87c.06-.69-.43-1.37,0-2.07a.62.62,0,0,1,.6-.36c.31,0,.37.26.39.53C96.07,33.77,96.15,34.39,96.25,35.31Z"/><path d="M81,42.38c.34.78-.34,1.31-.46,2a.42.42,0,0,1-.51.26c-.26-.1-.14-.31-.12-.52.06-.7.09-1.41.11-2.11,0-.4-.14-1,.46-.95a.7.7,0,0,1,.62,1Z"/><path d="M90.38,41.41c0,.93.27,1.82-.32,1.88-.85.08-.59-.93-.72-1.46s-.08-1.61.61-1.6S90.35,41.21,90.38,41.41Z"/><path d="M75,31.78c-.13,1.31,1.19,2.58,0,3.9-.09.11-.1.36-.34.24a.3.3,0,0,1-.13-.5c.59-.59.29-1-.08-1.61S74.67,32.46,75,31.78Z"/><path d="M63.47,38.05c-.86-.09-.82-.7-.76-1.14a5.44,5.44,0,0,0-.5-3.11c-.12-.3-.19-.62.22-.69s.3.3.4.51C63.51,35,63.07,36.55,63.47,38.05Z"/><path d="M87.74,36.84c0-1.13-.6-2.19,0-3.3.12-.22.24-.48.55-.39s.25.41.18.63a4.34,4.34,0,0,0,0,1.93A1,1,0,0,1,87.74,36.84Z"/><path d="M88,48.24A7.38,7.38,0,0,1,87.69,45c0-.23-.28-.65.25-.64.28,0,.39.28.38.56A7.92,7.92,0,0,1,88,48.24Z"/><path d="M69.08,33.34a.93.93,0,0,0,.15,1.21,2.65,2.65,0,0,1,.46,1.87c0,.16.07.33-.14.4s-.41,0-.41-.13a12.51,12.51,0,0,0-.63-2.85c-.07-.26.25-.5.6-.48Z"/><path d="M92.63,31.93c-.41.28.16,1.12-.58,1.26-.27,0-.49-.32-.35-.66s0-1.09.7-1.15C92.61,31.37,92.72,31.62,92.63,31.93Z"/><polygon points="69.35 33.07 69.38 32.99 69.32 33.04 69.35 33.07"/><path d="M69.11,33.36l.24-.29,0,0c0,.16,0,.29-.24.3Z"/><path d="M72.18,89.34c-.5-.06-.86-.2-.81-.84a1.22,1.22,0,0,1,.89-1.19c.38-.06.79.51.72,1S73,89.41,72.18,89.34Z"/><path d="M68.3,88.74c0,.5-.28.88-.74.83s-1.06-.23-1-.91a1.06,1.06,0,0,1,1-.85C68.06,87.76,68.28,88.25,68.3,88.74Z"/><path d="M71,92.5a.7.7,0,0,1,.65.9c-.1.49-.21,1.07-1,1s-.43-.77-.53-1.12C70,92.76,70.64,92.65,71,92.5Z"/><path d="M96.67,87.43c-.4-.09-.75-.27-.71-.72a1.71,1.71,0,0,1,1.18-1.38c.4-.14.49.63.52,1C97.7,86.9,97.15,87.18,96.67,87.43Z"/><path d="M91,87.05c0-.76.17-1.27.88-1.33a.62.62,0,0,1,.68.69,1.37,1.37,0,0,1-1.12,1.18C90.79,87.71,91.09,87.19,91,87.05Z"/><path d="M94,91.51c0,.57-.46.66-.94.74-.32,0-.73,0-.64-.33s.14-1.19.76-1.28C93.55,90.58,93.88,91,94,91.51Z"/><path d="M52.42,19.59h.07l0,0Z"/></g></g></svg>