<svg xmlns="http://www.w3.org/2000/svg" viewBox="0 0 188.25 235.73"><defs><style>.cls-1{fill:#fff;}.cls-2{font-size:42px;letter-spacing:0.07em;}.cls-2,.cls-3{font-family:AmaticSC-Regular, Amatic SC;}.cls-3{font-size:28px;}.cls-4{fill:#c16842;}</style></defs><title>FullFox</title><g id="ArrowCross_copy" data-name="ArrowCross copy"><g id="RightArrow"><path d="M45.48,199.57c-.8-.19-.54-.7-.39-1.22.3-1,.56-2.12.85-3.27a5.36,5.36,0,0,0-3.29,4c-.3,1.49-1,2.84-1.42,4.29-.06.22-.22.43-.67.29l1.19-3.42a3.55,3.55,0,0,0,.31-.77c0-.47.39-1.3-.16-1.31a1.42,1.42,0,0,0-1.55,1.13,6.07,6.07,0,0,1-1.8,3.74c.21-.65.46-1.28.63-1.94.08-.34.53-.84,0-1a1.27,1.27,0,0,0-1.1.44c-.39.59-1.05.85-1.44,1.38s-.61.51-1,.16-.21-.73.16-1c1.57-1.15,3.12-2.32,4.72-3.43a23.78,23.78,0,0,0,3.62-2.87c.93-1,2.37-1.08,3.37-2,1.28-1.14,2.84-2,3.69-3.58.41-.75,1.25-.91,1.79-1.49A28.51,28.51,0,0,1,57.13,184c1.74-1.24,3.25-2.74,5-4,2.39-1.69,4.67-3.52,7.05-5.2a52.26,52.26,0,0,0,7.46-6.17c2-2,4.51-3.24,6.57-5.1a45.24,45.24,0,0,1,6.14-4.71,7.46,7.46,0,0,0,1.63-1.3,40.86,40.86,0,0,1,4.26-3.36c1.64-1.35,3.62-2.23,5-4a23.77,23.77,0,0,1,3.15-2.83c2-1.9,4.22-3.61,6.21-5.57a24.91,24.91,0,0,1,4.31-3.33c1.91-1.18,3.44-2.88,5.43-3.92,3.48-1.81,6-4.81,9.1-7.14,2.49-1.88,4.88-3.95,7.29-6,.54-.46,1.62-.44,1.47-1.72-1.66,1.19-3.26,2.33-4.85,3.49-3.08,2.26-5.75,5-9.11,6.94-1.86,1.06-3.34,2.75-5.08,4s-3.26,2.73-5.07,3.88a40.19,40.19,0,0,0-3.91,3.12c-2.33,1.94-4.34,4.23-7.06,5.74a24.65,24.65,0,0,0-6.44,5.32,54,54,0,0,1-4.93,4.2,15,15,0,0,1-3.1,2.34c-.72.36-1,1.42-2,1.24l-.65.41c-2.67.64.25-1.41.91-1.77,2-1.08,3.48-2.72,5.27-4a28.75,28.75,0,0,1,2.37-2,12.56,12.56,0,0,0,3.4-3,10.86,10.86,0,0,1,2.48-2.18c3.41-1.9,6.25-4.53,9.24-7,1.88-1.55,3.75-3.12,5.75-4.53,1.38-1,2.6-2.18,4-3.12,1-.69,1.77-1.71,2.78-2.43.55-.4,2.14-1.49,2.5-1.72,1.15-.74,2.21-1.61,3.34-2.38s5-4,5.85-4.69c2-1.63,4.23-3.11,6.33-4.68a65.76,65.76,0,0,0,6.09-4.75c1-.94,2.06-1.87,3.06-2.77a50.52,50.52,0,0,1,4-3.9c-1.65-.36-3.33.18-5,0-.15,0-.32,0-.47,0-.5-.08-1-.26-1-.83s.51-.76.86-.8a22.27,22.27,0,0,0,5.1-1.68q4.14-1.62,8.26-3.32a7.44,7.44,0,0,0,2.1-.78c.22-.18,1,.14,1.27.54s0,.65-.23.94a80.23,80.23,0,0,0-5.16,7.88c-1.21,1.93-2.92,3.5-4.18,5.42-.37.57-1.18.12-1.76,0-.36,0-.48-.56-.34-1s.24-.89-.16-1.09-.49.4-.74.61c-2.61,2.15-5.32,4.17-8.08,6.12-.74.53-1.66.79-2.23,1.55-.18.24-5.05,4.1-7.15,5.81s-4.35,3.46-6.46,5.27a57.16,57.16,0,0,1-7.31,5.67,14.73,14.73,0,0,0-2.83,2.12,17.65,17.65,0,0,1-3.27,2.32,42.46,42.46,0,0,0-5.37,4.34c-2.36,2.08-4.82,4.12-7,6.33-2.82,2.85-6.21,4.84-9.24,7.35-2.14,1.78-4.42,3.39-6.71,5a19,19,0,0,0-1.57,1.51,52.31,52.31,0,0,1-5.35,3.91,10.05,10.05,0,0,0-1.43,1.57,18.68,18.68,0,0,1-3.76,3.11c-1.45,1-2.62,2.2-4.06,3.16s-2.53,2-3.82,2.92c-1.5,1.1-3,2.14-4.47,3.32a46.76,46.76,0,0,1-4.66,3.68,21.07,21.07,0,0,0-2.36,2.15c-.7.6-.55,1.62-.81,2.44a49.52,49.52,0,0,0-2.17,6.95.6.6,0,0,1-.78.53c-.49-.17-.24-.52-.1-.88,1-2.42,1.86-4.86,2.79-7.29.13-.34.35-.85,0-.93a1.32,1.32,0,0,0-1.06.62,20.73,20.73,0,0,0-2.46,4.8,11.15,11.15,0,0,0-.81,2.7c-.09,1.06-.83,1.9-.81,3a.41.41,0,0,1-.56.44c-.55-.19,0-.42,0-.61.69-1.9.92-3.93,1.65-5.82.18-.45,1-1,.35-1.42-.37-.26-.79.57-1.23.86a2.36,2.36,0,0,0-1.1,1.72c-.21,1.37-1,2.59-1.13,4ZM153.2,111.09c3.77-3.48,5.94-8,8.77-12l-.17-.27L150,103.88c.08.09.11.14.13.14l2.72,0c1.79,0,2.38.73,1.74,2.4-.4,1-.15,2.32-1.17,3.19A1.29,1.29,0,0,0,153.2,111.09Zm-5.27.3a2.47,2.47,0,0,0-1.31.94c-.18.2-.62.47-.31.79s.56-.19.68-.34C147.3,112.36,148,112.21,147.93,111.39Z"/><path d="M85.59,160a34.67,34.67,0,0,1-5.92,5.09c-1.68,1.12-3.41,2.17-5.06,3.31-1.37,1-2.45,2.44-3.83,3.5-3,2.31-5.64,5.08-8.8,7.19a10.78,10.78,0,0,1-1.38.89c-2.69,1.29-4.24,3.88-6.5,5.65-.16.12-.29.33-.46.38-1.35.34-2.18,1.54-3.39,2.07-.4.17-.45.52-.7.75-1.54,1.41-3.14,2.73-4.73,4.07-1.91,1.62-3.85,3.21-5.74,4.86a33.12,33.12,0,0,0-3.19,2.62c1,.72-.11,1.7-.24,1.72s-1.17-1.22-1.3-1.4c-.26-.34.74-.91,1-1.12.85-.65,1.67-1.33,2.52-2,.18-.13.5-.15.37-.49s-.37-.23-.61-.2a31.8,31.8,0,0,1-3.24.15,22.93,22.93,0,0,1,5-1.23c.3,0,.61,0,.9-.2.46-.39,1.5-.5,1.29-1.16s-1,0-1.59,0c-1.68.07-3.36.18-5,.28-.19,0-.42.09-.44-.21s.21-.46.54-.47c1.47-.05,2.94-.06,4.4-.21a9.5,9.5,0,0,0,4.91-1.53c.48-.35.55-1.16,1.34-1.14a.74.74,0,0,0,.09-.43c-.07-.27-.26-.15-.47-.13a75.12,75.12,0,0,0-7.61,1,4,4,0,0,0-1.6.38c-.16.1-.51.16-.58-.17a.44.44,0,0,1,.42-.59l10.39-1.4a1.88,1.88,0,0,0,.59-.06.75.75,0,0,0,.51-.85c-.09-.34-.48-.21-.74-.19-1.62.12-3.23.23-4.85.27s-2.91-.5-4.4-.39c.06-.59.39-.55.71-.47,3.08.72,6.15.13,9.23,0,1.34,0,2.14-.92,3.22-1.33.1,0,.55,0,.41-.4s-.35-.37-.68-.34l-7.47.66c-.48,0-.76-.14-.78-.65s.3-.79.83-.71c2.58.39,5.14-.34,7.72-.13.34,0,.68-.19,1,.08a1.15,1.15,0,0,0,1.59-.32c.57-.8,1.53-1.19,1.91-2.22a4.21,4.21,0,0,1,2.07-1.89A64.91,64.91,0,0,0,63.08,177a23.22,23.22,0,0,0,4.58-4c.89-1.12,2.36-1.38,3.24-2.51,1.62-2.08,3.89-3.37,6-4.85,2.46-1.72,5.14-3.23,7.07-5.62.58-.71,1.07.39,1.6,0C85.61,160,85.59,160,85.59,160Z"/><path d="M45.46,199.56a4.54,4.54,0,0,0-.59,1.75c0,.3-.21.56-.54.47s-.31-.38-.23-.67c.2-.75.22-1.64,1.37-1.54Z"/></g><g id="LeftArrow"><path d="M149.53,199.42c-.18-1.39-1-2.59-1.21-4a2.39,2.39,0,0,0-1.14-1.7c-.45-.27-.88-1.1-1.25-.84-.61.43.19,1,.38,1.42.77,1.88,1,3.9,1.77,5.78.07.19.58.41,0,.62a.43.43,0,0,1-.58-.44c0-1.07-.76-1.89-.87-3a10.6,10.6,0,0,0-.86-2.68,20.92,20.92,0,0,0-2.56-4.75,1.37,1.37,0,0,0-1.08-.6c-.37.1-.13.6,0,.93,1,2.42,2,4.84,3,7.24.15.35.4.7-.09.87a.59.59,0,0,1-.79-.5,50.93,50.93,0,0,0-2.31-6.91c-.28-.82-.15-1.84-.86-2.43a21.92,21.92,0,0,0-2.4-2.09,45.64,45.64,0,0,1-4.74-3.58c-1.46-1.15-3-2.16-4.54-3.23-1.31-.92-2.55-2-3.89-2.84s-2.65-2.15-4.12-3.07a18.58,18.58,0,0,1-3.82-3,9.7,9.7,0,0,0-1.47-1.54,50.7,50.7,0,0,1-5.42-3.8,19.35,19.35,0,0,0-1.61-1.48c-2.32-1.55-4.63-3.12-6.82-4.85-3.07-2.45-6.51-4.36-9.39-7.15-2.23-2.17-4.73-4.16-7.14-6.19a41.59,41.59,0,0,0-5.46-4.22,18,18,0,0,1-3.31-2.26,14.79,14.79,0,0,0-2.88-2.06,56.9,56.9,0,0,1-7.43-5.51c-2.14-1.77-4.38-3.42-6.57-5.13s-7.08-5.43-7.26-5.66a8.61,8.61,0,0,0-2.27-1.5c-2.8-1.9-5.55-3.86-8.2-6-.26-.2-.32-.81-.75-.59s-.27.72-.14,1.1,0,1-.33,1c-.57.09-1.37.55-1.75,0-1.3-1.89-3-3.42-4.3-5.32a79,79,0,0,0-5.32-7.77c-.24-.29-.52-.58-.25-.93s1-.75,1.26-.57a7.73,7.73,0,0,0,2.12.73c2.76,1.08,5.54,2.12,8.33,3.15a22.24,22.24,0,0,0,5.13,1.57c.35,0,1,.15.87.78s-.51.77-1,.85c-.15,0-.32,0-.47,0-1.65.26-3.33-.25-5,.15a52.57,52.57,0,0,1,4,3.81c1,.88,2.1,1.79,3.11,2.71a67.26,67.26,0,0,0,6.19,4.62c2.13,1.53,4.34,3,6.42,4.55.91.7,4.82,3.82,5.95,4.56s2.23,1.59,3.39,2.31c.37.23,2,1.28,2.54,1.67,1,.7,1.77,1.7,2.83,2.37,1.43.91,2.68,2.1,4.07,3,2,1.37,3.93,2.89,5.85,4.4,3,2.4,5.93,5,9.39,6.8a10.72,10.72,0,0,1,2.52,2.12,12.15,12.15,0,0,0,3.47,3c.5.24,2.12,1.79,2.4,2,1.82,1.26,3.38,2.87,5.35,3.91.67.35,3.64,2.33,1,1.75l-.65-.39c-1,.2-1.28-.86-2-1.2a15.29,15.29,0,0,1-3.15-2.28,51.26,51.26,0,0,1-5-4.09A24.53,24.53,0,0,0,91.85,148c-2.75-1.46-4.81-3.7-7.17-5.6a38.67,38.67,0,0,0-4-3c-1.83-1.12-3.41-2.55-5.15-3.78s-3.29-2.9-5.16-3.92c-3.41-1.85-6.13-4.56-9.26-6.74-1.61-1.13-3.24-2.24-4.92-3.4-.12,1.29,1,1.25,1.51,1.7,2.45,2,4.88,4,7.41,5.82,3.13,2.26,5.73,5.21,9.25,6.95,2,1,3.57,2.66,5.51,3.8A25.32,25.32,0,0,1,84.27,143c2,1.92,4.25,3.59,6.33,5.44a23.75,23.75,0,0,1,3.2,2.77c1.37,1.76,3.37,2.61,5,3.92a43.08,43.08,0,0,1,4.33,3.27,8.07,8.07,0,0,0,1.65,1.27,44.4,44.4,0,0,1,6.24,4.57c2.1,1.82,4.66,3,6.67,5a50.9,50.9,0,0,0,7.59,6c2.42,1.64,4.73,3.42,7.16,5.05,1.75,1.19,3.28,2.66,5.05,3.86a28.4,28.4,0,0,1,4.21,3.66c.56.57,1.39.71,1.82,1.46.89,1.54,2.46,2.38,3.77,3.5,1,.86,2.46.94,3.41,1.89a23.29,23.29,0,0,0,3.68,2.79c1.62,1.08,3.19,2.21,4.78,3.33.38.27.56.61.18,1s-.66.27-1-.13-1.06-.77-1.46-1.35a1.26,1.26,0,0,0-1.11-.42c-.55.21-.09.69,0,1,.18.65.44,1.29.67,1.93a6.07,6.07,0,0,1-1.88-3.7,1.41,1.41,0,0,0-1.58-1.1c-.55,0-.17.85-.13,1.31a4,4,0,0,0,.33.77c.43,1.12.84,2.26,1.26,3.39-.45.15-.61-.05-.68-.28-.44-1.44-1.17-2.77-1.5-4.26a5.34,5.34,0,0,0-3.38-4c.32,1.14.6,2.2.93,3.25.15.51.42,1-.37,1.23ZM39.67,111.81c-1-.85-.82-2.13-1.24-3.16-.68-1.66-.11-2.38,1.69-2.44l2.71-.1s.05-.06.13-.15L31.1,101.12l-.17.27c2.92,4,5.19,8.45,9,11.85A1.3,1.3,0,0,0,39.67,111.81Zm6.53,3c.12.15.31.73.68.33s-.14-.58-.32-.79a2.47,2.47,0,0,0-1.33-.9C45.17,114.25,45.88,114.38,46.2,114.79Z"/><path d="M108.58,160.7a35,35,0,0,0,6,5c1.71,1.09,3.46,2.1,5.13,3.2,1.39.92,2.5,2.39,3.9,3.42,3.06,2.24,5.74,5,9,7a12.85,12.85,0,0,0,1.4.86c2.72,1.23,4.32,3.79,6.62,5.51.16.12.29.32.46.36,1.36.32,2.21,1.5,3.44,2,.4.16.46.5.71.73,1.57,1.38,3.2,2.66,4.81,4,1.95,1.57,3.92,3.12,5.84,4.73a32,32,0,0,1,3.25,2.55c-1,.75.15,1.7.27,1.71s1.16-1.24,1.28-1.41c.25-.36-.76-.91-1-1.11-.86-.63-1.7-1.29-2.56-1.92-.18-.13-.49-.15-.37-.48s.36-.24.6-.22a29.15,29.15,0,0,0,3.24.08,22.57,22.57,0,0,0-5-1.12c-.31,0-.62,0-.91-.19-.47-.38-1.51-.47-1.31-1.13s1,0,1.59,0c1.68,0,3.36.11,5,.18.19,0,.43.07.44-.22s-.22-.46-.55-.47c-1.47,0-2.94,0-4.4-.11a9.52,9.52,0,0,1-5-1.43c-.48-.34-.57-1.15-1.36-1.11a.73.73,0,0,1-.1-.43c.07-.27.26-.15.47-.14,2.55.17,5.1.43,7.62.85a4,4,0,0,1,1.62.35c.16.1.51.15.58-.18a.46.46,0,0,0-.44-.59l-10.42-1.17a2.67,2.67,0,0,1-.58-.05.75.75,0,0,1-.53-.84c.08-.34.47-.23.73-.21,1.62.09,3.23.17,4.86.17s2.89-.56,4.39-.48c-.08-.59-.41-.54-.73-.46-3.06.79-6.14.26-9.22.21-1.34,0-2.16-.88-3.25-1.26-.1,0-.55,0-.41-.39s.34-.39.67-.37c2.49.18,5,.34,7.48.51.48,0,.76-.16.76-.66s-.32-.79-.84-.7c-2.57.45-5.15-.23-7.72,0-.34,0-.68-.18-1,.09a1.13,1.13,0,0,1-1.59-.28c-.59-.79-1.56-1.15-2-2.18A4.35,4.35,0,0,0,137.4,181a64.2,64.2,0,0,1-6-3.75,22.9,22.9,0,0,1-4.66-4c-.92-1.1-2.4-1.33-3.3-2.44-1.66-2-4-3.28-6.12-4.72-2.51-1.66-5.21-3.12-7.2-5.47-.59-.7-1.06.41-1.6,0C108.56,160.71,108.58,160.7,108.58,160.7Z"/><path d="M149.53,199.42a4.92,4.92,0,0,1,.63,1.74c.05.3.21.56.54.46s.31-.39.22-.68c-.22-.74-.26-1.63-1.4-1.51Z"/></g><g id="CrossCoverup_copy" data-name="CrossCoverup copy"><polygon class="cls-1" points="94.12 153.63 95.08 152.69 97.27 150.45 98.56 151.79 95.21 154.2 94.12 153.63"/></g><text class="cls-2" transform="translate(22.69 167.16)">RH</text><text class="cls-2" transform="translate(139.44 167.16)">DI</text><text class="cls-3" transform="translate(78.89 209.4)">2018</text></g><g id="FoxHead_copy" data-name="FoxHead copy"><polygon id="BG_RightCheek" class="cls-1" points="100.11 89.01 113.52 66.42 127.96 65.42 137.52 66.59 127.42 84.09 103.71 118.33 100.89 118.33 100.11 89.01"/><polygon class="cls-1" points="47.11 69.22 72.75 68.64 77.11 71.84 88.12 83.79 90.06 87.26 89.97 118.62 87.97 118.33 52.61 77.01 46.11 69.76 47.11 69.22"/><path id="FoxEye" d="M76.44,79.33l-.66,1.61c-.09.19-1.35,1.64-1.47,1.81l-.89,2a.72.72,0,0,1-.92,0l-1.92-2.4-1.52-2.84a.29.29,0,0,1,.23-.44l2.44.3c1-.25,1.26,0,2.49-.21l2-.3A.26.26,0,0,1,76.44,79.33Z"/><path id="FoxEye-2" data-name="FoxEye" d="M121.83,76.37,121.12,78c-.1.19-.4,1.61-.53,1.77l-2.27,2a.36.36,0,0,1-.6,0l-3.27-5.34a.29.29,0,0,1,.24-.44l2.43.38c1-.22,1.25,0,2.49-.13l2-.25A.27.27,0,0,1,121.83,76.37Z"/><path id="Fill" class="cls-4" d="M59.39,68.45l14.91.21,15.07,16.5.6,33.46,10.92-.29,1.79-24.08a31.68,31.68,0,0,1,3-11.29l7.62-16,1.3-1.3,17.37.36-7-29.54L119.11,18.8,108.8,42.19l-34.66,2L65,20.82l-3.3,16.7A36.81,36.81,0,0,0,61,43.34l-.93,24.53"/><g id="Outline"><path d="M125.39,48.63q-3.81-3.43-7.61-6.89a3.62,3.62,0,0,1-.5-.71l.45-.1.09,0-.14,0a1,1,0,0,1,0-.1l-.42.13a1.32,1.32,0,0,1-1.33-.77c-1-1.5-2.81-2.16-3.85-3.64-.52-.73-.87-.26-1.1.37-.38,1-1.51,5.76-1.35,3a19.53,19.53,0,0,1,2.08-5.65c.69-1.1.76-2.49,1.31-3.7,1.37-3,2.41-6.21,4-9.17a12.52,12.52,0,0,0,.83-2.75c.27-1,1.11-.8,1.89-.81s.5.56.59,1c.34,1.52.25,3.26.8,4.54.79,1.82.71,3.82,1.76,5.56.72,1.19,1,1.29,1.25,2.71.11.73.72,2.45.81,3.15a30.39,30.39,0,0,1,1.59,4.59,2,2,0,0,0,0,.59c1,2.64,1,5.48,1.82,8.13.48,1.57,1,3.15,1.42,4.72a47.63,47.63,0,0,1,1.73,8.35,4.34,4.34,0,0,0,.6,1.62c0,.07,0,.19.09.23.7.54-.54,2.16,1.27,2.15,1,0,2,.39,3,.12a2.3,2.3,0,0,1,2.67.73c.22.29.35.49,0,.84a28.86,28.86,0,0,0-6,8.84c-.36.84-1,1.49-1.38,2.28a103.09,103.09,0,0,1-6.88,11c-2.22,3.32-4.91,6.3-6.92,9.77-.92,1.6-2.12,3-3.06,4.65a14.64,14.64,0,0,1-1.3,1.42c-2,3.18-3.67,6.53-6,9.49-.84,1.06-1.31,2.41-2.48,3.27-.32.24.16.36.31.51-.43,1.37-2.4,4.19-3,5.26-.77,1.52-1.73,2.94-2.46,4.49a1.24,1.24,0,0,1-2.16,0c-1.32-1.85-3.31-2.71-5.11-3.88a15.17,15.17,0,0,1-1.92-1.43,20.69,20.69,0,0,0-3.79-2.92,1.44,1.44,0,0,1-.51-.69c-.86-2.09-2.52-3.58-3.85-5.32-2.31-3-4.89-5.84-7.19-8.89a51.37,51.37,0,0,0-5.27-5.89c-2.23-2.17-4.37-4.44-6.47-6.74s-4.28-4.84-6.25-7.43c-1.84-2.43-3.19-5.25-5.61-7.24a2.68,2.68,0,0,1-.79-1.24c-.29-1.11-1.27-1.55-2-2.26-.9-.93-1.76-1.89-2.65-2.82-.26-.27-.56-.5-.84-.75s-.88-.17-.75-.92a1.35,1.35,0,0,1,1.05-1c2,0,3.86-.7,5.9-.33a32.7,32.7,0,0,0,5.69.07c.36,0,.78-.09.79-.46,0-.86.59-1.56.59-2.41a31.27,31.27,0,0,1,1-7.51,4.6,4.6,0,0,0,.15-1.07A34.16,34.16,0,0,1,60.34,53,51.51,51.51,0,0,0,61,47.65c0-2.82.72-5.56.82-8.35s.58-5.25.81-7.88c.16-1.84.36-3.71.35-5.52,0-1.41.84-2.62.53-4.08-.16-.77.57-1.24,1.45-1a2.51,2.51,0,0,1,1.71,2c.52,2.08,1.48,4,2.19,6s1.45,4,2.35,5.94a32.63,32.63,0,0,1,1.87,4.09A13.91,13.91,0,0,0,74.2,42a1.77,1.77,0,0,0,2.43.86c1.76-.87,3.66-.47,5.49-.66A14.63,14.63,0,0,1,84,42.3c3.2.1,6.41-.14,9.59,0,2.88.15,5.71-.22,8.56-.17,1.75,0,3.46-.31,5.21-.18.84.07,1.78-.9,2.31-2.08,1,.16-1.27,3.86-2,3.89-4.89.24-9.78.56-14.67.51-3.29,0-6.59,0-9.88-.29a39,39,0,0,0-6.72.31c-.94.1-1.89-.19-2.84.21a.62.62,0,0,1-.72-.85,1.07,1.07,0,0,0-.06-1.07,7.4,7.4,0,0,1-1.08-3.15c-.09-.45-.19-.83-.66-1s-.69.22-.93.52c-1.41,1.79-2.9,3.52-4.2,5.39-.93,1.33-2.27,2.29-3.1,3.7a2.86,2.86,0,0,0-.55,1.61,21.88,21.88,0,0,1-.81,5.08,17,17,0,0,0,.07,2.45c-.19,3.27-1.33,6.43-1.06,9.73,0,.4-.5.48-.35.89.7.33,1.37-.07,2-.17,3.43-.47,6.9.12,10.28-.28,2.28-.28,3.21,1,4.07,2.31a49.42,49.42,0,0,0,3.47,4.63,60.51,60.51,0,0,0,5.66,6.39c1.42,1.31,2.59,3.11,4.76,3.48.55.1.51.69.52,1.13,0,1.92,0,3.83-.09,5.75a13.44,13.44,0,0,0,0,3.8c.33,1.35-.32,2.7-.13,4a31.56,31.56,0,0,1,.06,6.22c-.17,3.2.43,6.4-.07,9.6-.14.89.13,1.85,0,2.8-.1.65.46,1,1.08.9,1.84-.33,3.71-.25,5.55-.45a8.69,8.69,0,0,1,2.34.2,49.56,49.56,0,0,0,1.08-8.81c.19-3.14.1-6.28,0-9.41-.06-2.84-.22-5.67-.52-8.5,0-.5.1-1.08-.8-.75-.4.14-.76-.26-1-.6s.17-.59.31-.84a26.82,26.82,0,0,1,3.79-5.82l0,.09V83.5a36.89,36.89,0,0,1,3.79-6.17,47.57,47.57,0,0,0,5.39-8.74,10.68,10.68,0,0,0,1.4-2.68c.1-.46.67-.74,1.29-.82a71.68,71.68,0,0,1,7.75-.37,34.36,34.36,0,0,1,8,.44c.63.14.77,0,.72-.68-.22-3.05-1.25-6-1.53-9-.15-1.61-1.17-2.93-1.22-4.53,0-.47-.45-.52-.76-.71-.75-.46-1.78-.59-2-1.65.23,0,.52-.07.35-.42,0-.11-.32-.24-.36-.2C125.12,48.19,125.41,48.41,125.39,48.63Zm-6.31-29,.08,0h-.11ZM89.59,105.53l0,0h-.08v-.42h.05l-.05,0C89.58,105.25,89.58,105.39,89.59,105.53ZM66.66,40c0,.06.09.14,0,0l.08,0Zm53.22-12,0,0,.07,0,0,0Zm-.39-1.15c-.81.2-.81.2-.17,1.1.06-.42.11-.77.14-1.12l0-.44-.1,0ZM65.77,36.56c-.49-.3-.79-.1-.94.38-.07.24.06.33.35.34.57,0,.72-.23.56-.74L66,36.3l-.14-.08Zm2,3c.89-.18,1-.84,1-1.59-.28.56-1.08.81-1,1.62l0,.06Zm-3.47,5.38c-1-.79-1.06.35-1.44.78-.14.16-.33.48-.05.64s.52-.09.6-.39a2.21,2.21,0,0,1,.87-1.06c.13-.23.67-.22.37-.74C64.28,44.31,64.31,44.63,64.28,44.91Zm54-15.94c-.32-.14-.67-.47-1-.1a1.41,1.41,0,0,0-.08,1.68,5.07,5.07,0,0,0,.68,1.71c.1.13.21.28.39.16a1,1,0,0,0,.33-.36c.14-.33-.07-.28-.31-.27-.42,0-.36-.27-.22-.48.8-1.23-.38-.68-.75-.85.19-.57.85-.87.92-1.52.71.17.66-.28.51-.69-.08-.22-.06-.69-.46-.57s-.29.51-.16.83C118.23,28.66,118.27,28.82,118.32,29ZM66,38.76c-.07-.17-.09-.41-.37-.32,0,0-.08.15-.06.2.1.28.29.16.46.09-.1.23-.2.51,0,.69s.38,0,.52-.2a2.79,2.79,0,0,0,1-1.87C66.75,37.61,66.16,37.93,66,38.76Zm1.73-3.2c-1.34-.15-.61-1.5-1.17-2.13-.45.45.14,1.19-.63,1.66,0-.69-.48-1.16.2-1.78.42-.38.26-1-.56-.68l.13-.41-.18,0,.06.45a.65.65,0,0,1,.07.21l0,0c-.45-.12-.41.58-.83.5l0,.5h.09l0-.51c.58.4.2,1.13.55,1.61l-.13.45.18,0-.08-.45c.31.42.74.7.81,1.32.13,1.08.55,0,.87,0,.62.19.8-.18.66-.75ZM85.63,83.09a11.83,11.83,0,0,1-1-.79c-1.56-1.49-2.75-3.31-4.2-4.89-1.32-1.43-2.55-3-3.79-4.45s-2.1-3.35-4.34-3.65c-.77-.11-1.47.32-2.19.11-1.91-.53-3.8.14-5.7,0a41.34,41.34,0,0,0-6.56.52c-3.15.35-6.32-.17-9.54.09A6.38,6.38,0,0,0,49,71.52c2.16,2.64,4.37,5.25,6.56,7.88A37.21,37.21,0,0,1,59,84.07a31.48,31.48,0,0,0,4.51,5.57c1.25,1.29,2.52,2.6,3.79,3.89s2.62,2.85,3.85,4.35c1,1.27,2.51,2.2,3.51,3.5q4.66,6.06,9.67,11.82c1.22,1.4,2.38,2.85,3.61,4.24.25.29.62.75,1,.59.55-.21.11-.71.08-1.1a3.69,3.69,0,0,1-.06-1,31.67,31.67,0,0,0,.18-7.15c0-.56,0-1.14,0-1.71q.21-5.26.25-10.53c0-2.36-.12-4.71-.14-7.06a5.52,5.52,0,0,0-1.93-4.66,9.74,9.74,0,0,1-1.69-1.77l0,0Zm15.61,35.22c.89,0,1.29,0,1.69-.63a5.42,5.42,0,0,1,2.27-2.55,3.3,3.3,0,0,0,1.29-1.61,41.09,41.09,0,0,1,2.38-4.19c2.28-3.38,4.62-6.73,7-10,1.57-2.2,3-4.52,4.58-6.69,1.72-2.32,3.42-4.66,5.22-6.93a43,43,0,0,0,3.79-6.11c2.17-3.94,4.34-7.88,6.75-11.69.26-.41.27-.6-.33-.73-1.53-.34-3.15.14-4.58-.25a32.46,32.46,0,0,0-5.93-.58,28.89,28.89,0,0,0-7.77.06c-1.22.23-2.71,0-3.49,1.32-1.31,2.14-2.46,4.37-3.83,6.49-2.38,3.67-4.92,7.23-7.19,11a7.69,7.69,0,0,0-1.39,4.76c.3,2.82.49,5.64.62,8.47.16,3.28.1,6.57.12,9.86,0,.37-.08.74-.11,1.11-.19,2.14-.29,4.29-.58,6.42C101.63,116.55,102.07,117.41,101.24,118.31ZM117.39,39c.26.54.37,1.29,1,1.1a1.94,1.94,0,0,0,1.32-1.75C118.83,38.31,118.72,40.44,117.39,39ZM119,20.66c.26.87-.29,2,.79,2.78A6.06,6.06,0,0,0,119,20.66ZM97.6,121.72c-.46.51-1.28.15-1.61.87-.09.17,0,.31.22.32a1.6,1.6,0,0,0,1.45-.94S97.64,121.9,97.6,121.72ZM122,34.31c0-.21,0-.57-.2-.5-.57.16-.59.78-.79,1.22-.12.25.15.27.27.26C121.84,35.21,121.94,34.76,122,34.31ZM69.91,36.18c-.3.59-.62,1.08.07,1.52.19.12.39.22.5,0C70.74,37.09,70.39,36.67,69.91,36.18Zm-3.36-5.89c-.66.4-1.06.68-.74,1.28.08.16.22.46.43.26C66.65,31.46,66.44,30.94,66.55,30.29ZM119.71,42c.58-.46,1.16-.58,1.13-1.31,0-.17-.08-.38-.27-.32-.48.16-.51.69-.77,1C119.74,41.48,119.76,41.62,119.71,42ZM128,49.75l-.75-1.8C126.56,49,126.93,49.33,128,49.75ZM96.13,121.27a2.73,2.73,0,0,0,1.21-1.49A1.27,1.27,0,0,0,96.13,121.27Zm27.58-81.36c-.29.53-.41,1,0,1.36.1.1.34.2.41,0A1.21,1.21,0,0,0,123.71,39.91ZM66.1,27.39c-.73.56-.49,1.11-.46,1.58,0,.12.22.22.39.08.46-.37-.23-.73,0-1.11C66.07,27.85,66.05,27.72,66.1,27.39Zm53,5.2c-.27.48-.9.41-.64,1a1.44,1.44,0,0,0,.27.34A1.1,1.1,0,0,0,119.1,32.59Zm-18.51,87.64c-1,.12-1,.59-.86,1.22ZM67.15,30.37a.91.91,0,0,0-.05-1.5A2.17,2.17,0,0,0,67.15,30.37Zm52.58-4.63c0-.39.41-1-.34-1.22C119.17,25.06,119.66,25.33,119.73,25.74ZM123,37.34a2.16,2.16,0,0,0-.44,1.6C122.7,38.52,123.22,38.24,123,37.34ZM120.46,36c0-.2-.11-.35-.26-.3a.75.75,0,0,0-.4.4c-.06.22.15.38.37.37S120.37,36.19,120.46,36ZM97.7,123.71c.48-.38.93-.54.91-1.15C98,122.65,97.75,123,97.7,123.71Zm19.76-90.26c-.39.2-.39.51-.29.85,0,.17.2.14.29.07A.53.53,0,0,0,117.46,33.45Zm2.83,9.07c.68.07.92-.15,1.06-.66C120.79,41.78,120.6,42.06,120.29,42.52ZM63.57,38.58c-.34.39-.47.68-.24,1a.31.31,0,0,0,.31,0C63.86,39.29,63.74,39,63.57,38.58Zm53.09-6.86c0,.36-.23.73.07,1.05,0,0,.28,0,.32-.09C117.26,32.28,117,32,116.66,31.72ZM63.83,37.05a1.53,1.53,0,0,0,0-1.22C63.5,36.18,63.32,36.48,63.83,37.05Zm60,5.52c-.22,0-.23.22-.23.36s.08.41.36.38a.28.28,0,0,0,.25-.35C124.2,42.76,124.12,42.56,123.85,42.57Zm-3.45-8.64c.37-.3.59-.55.47-1A1,1,0,0,0,120.4,33.93Zm-3.67.6c-.42.29-.52.57-.36.92,0,0,.15,0,.23.08C116.91,35.27,116.83,35,116.73,34.53ZM65.14,24.27a1.81,1.81,0,0,0,.11-.41c0-.22-.12-.58-.39-.4S64.79,24,65.14,24.27Zm54.67,10.59c0-.28-.14-.33-.35-.34s-.33,0-.36.23a.37.37,0,0,0,.3.45C119.64,35.25,119.74,35.05,119.81,34.86ZM65.39,43.43a.47.47,0,0,0,.45-.33c0-.08,0-.27-.07-.29a.36.36,0,0,0-.49.21A.31.31,0,0,0,65.39,43.43ZM119.76,40c-.38.3-.73.47-.59.95C119.66,40.86,119.8,40.58,119.76,40Zm5.51,6.21c-.12-.14-.17-.28-.26-.3a.28.28,0,0,0-.35.25c0,.16,0,.38.22.33S125.12,46.31,125.27,46.2ZM69.5,34.74c-.06-.05-.16-.22-.28-.24-.31,0-.24.24-.23.41s.12.32.31.28S69.53,35,69.5,34.74Zm-.43-1.38c-.11-.12-.2-.3-.32-.32s-.21.19-.21.32a.27.27,0,0,0,.3.29C68.92,33.64,69,33.49,69.07,33.36Zm22.54,86.72a.21.21,0,0,0-.18.33.57.57,0,0,0,.33.3.22.22,0,0,0,.26-.29A.39.39,0,0,0,91.61,120.08ZM63.79,40.77a1.2,1.2,0,0,0-.19.29c0,.14,0,.27.2.18a.48.48,0,0,0,.15-.3S63.86,40.85,63.79,40.77Zm1.65-15.91c-.07-.22-.12-.42-.31-.36s-.15.25-.15.38,0,.38.21.28S65.38,24.94,65.44,24.86ZM115.79,35.8c-.18,0-.22.1-.22.22a.42.42,0,0,0,.35.44s.19-.14.21-.23C116.17,36,116,35.86,115.79,35.8Zm10.33,7.8c.15,0,.24-.06.22-.19a.44.44,0,0,0-.16-.29c-.11-.09-.22,0-.25.11A.28.28,0,0,0,126.12,43.6ZM99.05,124.19c0-.28.5-.16.25-.64C99.16,123.76,98.85,123.8,99.05,124.19ZM64.34,28.57a.45.45,0,0,0,.13-.54s-.17,0-.19,0A.5.5,0,0,0,64.34,28.57Zm34.4,96.79-.19-.21a2,2,0,0,0-.33.32.48.48,0,0,0,.21.23C98.66,125.75,98.67,125.55,98.74,125.36Zm17.91-87.64c.16,0,.24-.08.21-.22a.47.47,0,0,0-.19-.28.35.35,0,0,0-.28.14C116.33,37.56,116.5,37.65,116.65,37.72ZM95,122.24c-.11-.13-.17-.28-.26-.3s-.3.13-.32.29.1.2.16.29ZM62.11,41.29a1.3,1.3,0,0,0,.17-.33s-.11-.14-.14-.13a1,1,0,0,0-.26.16Zm3-11.48.26.19c0-.06.11-.16.09-.18a1.25,1.25,0,0,0-.24-.21Zm54.84,2.36c.11-.41-.05-.43-.15-.4a.36.36,0,0,0-.19.24c0,.09.07.2.11.29ZM67.72,34.32c-.34-.19-.43-.27-.51-.27s-.26.06-.18.21a.39.39,0,0,0,.25.19C67.38,34.47,67.49,34.4,67.72,34.32Zm-3.95,8L63.59,42a1.79,1.79,0,0,0-.2.28c-.07.13,0,.24.13.22S63.68,42.41,63.77,42.32Zm52.66-12.38a2,2,0,0,0-.1.33c0,.05.08.11.12.17a1.08,1.08,0,0,0,.13-.29S116.5,30,116.43,29.94ZM66.62,27c0,.06-.11.13-.1.19s.07.13.11.2.11-.14.11-.2S66.66,27,66.62,27ZM117.5,37a1.63,1.63,0,0,0,.07-.33s-.1-.08-.16-.12a1.66,1.66,0,0,0-.1.29S117.41,36.9,117.5,37Zm.61-.93-.11-.15-.08.06.11.15Zm-2.71-1.27a1.39,1.39,0,0,0-.07.33s.11,0,.17.08a1.25,1.25,0,0,0,.12-.3A1.32,1.32,0,0,0,115.4,34.77ZM99.22,122s-.06-.09-.08-.09a1.18,1.18,0,0,0-.2.07s0,.09.07.08Zm18.92-94.88,0-.09-.17.07,0,.07Zm-.57.45c0-.07,0-.17,0-.22s-.19-.08-.23.05a.25.25,0,0,0,.06.2S117.5,27.53,117.57,27.52Zm3.17,9.9c-.07,0-.13-.11-.2-.11s-.12.07-.18.11.12.11.18.11S120.67,37.46,120.74,37.42Zm-1.68-13.16s0-.08-.07-.08,0,0-.08.05l.11.12ZM67.85,31.5l0,.11.09,0s0-.07,0-.1S67.88,31.51,67.85,31.5Zm50.57-7.42c0,.08-.06.15-.07.21s.05.06.08.09.1-.1.1-.16S118.47,24.13,118.42,24.08ZM117,28.34a.35.35,0,0,0,0-.11s-.05,0-.08,0a.38.38,0,0,0,0,.1S117,28.33,117,28.34ZM63.49,40.15s0,.06,0,.07a.38.38,0,0,0,.1,0l0-.14ZM119,18.87l.1-.07-.07-.09-.13.12ZM95,120.81l0,.09.08,0a.16.16,0,0,0,0-.09S95.06,120.82,95,120.81Zm24.9-94.23s.06,0,.07,0a.34.34,0,0,0,0-.1l-.12.06Zm-2-.35,0,.09H118a.21.21,0,0,0,0-.1S117.92,26.23,117.89,26.23Zm1-1.27,0,.08,0-.08ZM66.57,28.08l.07.05,0-.08ZM67,30.86l-.08-.09s-.08.06-.08.09,0,.06.07.09Zm48,3.11s.07,0,.07-.08,0-.06-.06-.09-.08.05-.08.08S114.9,33.94,114.93,34Zm5.55,4.65,0,.08h.07Z"/><path d="M90.08,56.77a.54.54,0,0,1,.47-.71c.32,0,.48.29.54.59.32,1.55.25,3.22,1.36,4.56a.66.66,0,0,1-.3,1c-.49.25-.61-.2-.81-.52A11.34,11.34,0,0,1,90.08,56.77Z"/><path d="M91.26,52.61c-.12-1.24-.24-2.42-.34-3.61,0-.23-.09-.53.23-.63a.5.5,0,0,1,.67.4c.17,1.45.82,2.84.54,4.32-.07.37-.23,1-.66.95-.6,0-.45-.67-.48-1.11A2.13,2.13,0,0,1,91.26,52.61Z"/><path d="M97.58,48.65c.39.12.63.32.51.81a6.64,6.64,0,0,0,0,3.4.76.76,0,0,1-.44,1c-.42.1-.53-.36-.68-.72-.62-1.48.3-2.84.27-4.27C97.2,48.71,97.37,48.6,97.58,48.65Z"/><path d="M98.41,61.73c-.31,1.66,1.19,2.89.74,4.5-.07.24.35.57-.11.74a.71.71,0,0,1-.68-.18c-.27-.21-.32-.34-.17-.71a1.82,1.82,0,0,0-.3-1.75C97,63,97,62.93,98.41,61.73Z"/><path d="M105.74,48.9c-.57,1.39.22,2.48.07,3.62a2.74,2.74,0,0,1-.28,1.14c-.1.16-.27.13-.42,0a.88.88,0,0,1-.3-1.12c.35-.59-.07-1-.17-1.52a2.88,2.88,0,0,1,.1-2.14c.14-.25.24-.63.57-.55A.55.55,0,0,1,105.74,48.9Z"/><path d="M85.86,56.93c0-.51-.07-.9.32-1.17s.67-.32.69.22a7.47,7.47,0,0,0,1,3.51c.12.23.27.63-.25.81a.62.62,0,0,1-.84-.31C86.41,58.94,86.13,57.86,85.86,56.93Z"/><path d="M83.46,52.08c-.75,1.29,0,2.12.41,3.08S83.59,57,83.58,58c0,.28-.52.23-.48,0,.2-1.68-.45-3.16-.87-4.7A1.61,1.61,0,0,1,83.46,52.08Z"/><path d="M94.21,61.51a2.66,2.66,0,0,1,.54-1.28c.21-.23.4-.69.75-.5s.1.55-.09.82a.85.85,0,0,0,.09,1.23c.72.71.45,1.67.64,2.51a.38.38,0,0,1-.31.47c-.12,0-.39-.15-.39-.23A6.58,6.58,0,0,0,94.21,61.51Z"/><path d="M93.38,47.24c.17-.44-.21-1,.35-1.17.17-.06.51-.06.58,0a1.18,1.18,0,0,1,.23,1.25c-.3.68.18,1.33.33,2,.09.44.28,1-.33,1.16s-.68-.46-.76-.92C93.64,48.79,93.51,48,93.38,47.24Z"/><path d="M86.37,47.85c.33.12.65.4.45.72a3.11,3.11,0,0,0,0,2.85c.09.28.31.68-.21.82a.56.56,0,0,1-.79-.51c-.21-1.11-.84-2.19-.13-3.33C85.87,48.16,86,47.88,86.37,47.85Z"/><path d="M79.11,50.34c.08-.24.16-.57.29-.88s.24-.71.68-.57.12.48,0,.77a4.44,4.44,0,0,0,.48,2.72c.16.39.54.91-.14,1.15s-.7-.36-.87-.84C79.33,52,79.33,51.17,79.11,50.34Z"/><path d="M99.09,55.71c-.38.83.09,1.81-.32,2.67-.14.28-.32.8-.78.64s-.15-.57-.09-.86c.2-.87-.27-1.79.26-2.67.19-.3.22-.64.62-.55S99.12,55.36,99.09,55.71Z"/><path d="M109.5,48.56c0,.07,0,.6-.37.61a.79.79,0,0,1-.86-.87c.06-.69-.43-1.37,0-2.07a.62.62,0,0,1,.6-.36c.31,0,.37.26.39.53C109.32,47,109.4,47.64,109.5,48.56Z"/><path d="M94.2,55.63c.34.78-.34,1.31-.46,2a.41.41,0,0,1-.51.26c-.26-.1-.14-.3-.12-.52.06-.7.09-1.41.11-2.11,0-.4-.14-1,.46-.95a.7.7,0,0,1,.62,1C94.27,55.41,94.23,55.52,94.2,55.63Z"/><path d="M103.63,54.66c0,.93.27,1.82-.32,1.88-.85.08-.59-.93-.72-1.46s-.08-1.61.61-1.6S103.6,54.46,103.63,54.66Z"/><path d="M88.2,45c-.13,1.31,1.19,2.58,0,3.9-.09.11-.1.36-.34.24a.3.3,0,0,1-.13-.5c.59-.59.29-1-.08-1.61S87.92,45.71,88.2,45Z"/><path d="M76.72,51.3c-.86-.09-.82-.7-.76-1.14a5.44,5.44,0,0,0-.5-3.11c-.12-.3-.19-.61.22-.69s.3.3.4.51C76.76,48.27,76.32,49.81,76.72,51.3Z"/><path d="M101,50.09c0-1.13-.6-2.19,0-3.29.12-.22.24-.49.55-.4s.25.41.18.63a4.34,4.34,0,0,0,0,1.93A1,1,0,0,1,101,50.09Z"/><path d="M101.22,61.49a7.35,7.35,0,0,1-.28-3.22c0-.24-.28-.66.25-.65.28,0,.39.29.38.56A7.92,7.92,0,0,1,101.22,61.49Z"/><path d="M82.33,46.59a.93.93,0,0,0,.15,1.21,2.65,2.65,0,0,1,.46,1.87c0,.16.07.33-.14.41s-.41,0-.41-.14a12.51,12.51,0,0,0-.63-2.85c-.07-.26.25-.5.6-.48Z"/><path d="M105.88,45.18c-.41.28.16,1.12-.58,1.26-.27.05-.49-.32-.35-.66s0-1.09.7-1.14C105.86,44.62,106,44.87,105.88,45.18Z"/><polygon points="82.6 46.32 82.63 46.24 82.57 46.29 82.6 46.32"/><path d="M82.36,46.61l.24-.29,0,0c0,.16,0,.29-.24.3Z"/><path d="M85.43,102.59c-.5-.06-.86-.2-.81-.84a1.2,1.2,0,0,1,.89-1.18c.38-.07.79.5.72,1S86.2,102.66,85.43,102.59Z"/><path d="M81.55,102c0,.5-.28.88-.74.83s-1.06-.23-1-.91a1.06,1.06,0,0,1,1-.85C81.31,101,81.53,101.5,81.55,102Z"/><path d="M84.28,105.75a.7.7,0,0,1,.65.9c-.1.49-.21,1.07-1,1s-.43-.76-.53-1.12C83.26,106,83.89,105.91,84.28,105.75Z"/><path d="M109.92,100.68c-.4-.09-.75-.27-.71-.71a1.71,1.71,0,0,1,1.18-1.39c.4-.14.49.63.52,1C111,100.15,110.4,100.43,109.92,100.68Z"/><path d="M104.24,100.31c0-.76.17-1.28.88-1.34a.62.62,0,0,1,.68.69,1.37,1.37,0,0,1-1.12,1.18C104,101,104.34,100.44,104.24,100.31Z"/><path d="M107.23,104.76c0,.57-.46.66-.94.74-.32,0-.73,0-.64-.33s.14-1.19.76-1.28C106.8,103.84,107.13,104.27,107.23,104.76Z"/><path d="M65.67,32.84h0Z"/></g></g></svg>