<svg xmlns="http://www.w3.org/2000/svg" viewBox="0 0 38.88 30.92"><defs><style>.cls-1{fill:#af9594;}</style></defs><title>Heart</title><g id="Heart"><path class="cls-1" d="M13.74,5.5S10.51,2,6,5.71c-3.16,2.63-2.7,5-1.85,9A11.24,11.24,0,0,0,8.35,20.6c1.17.55,6.5,3.77,7.08,4.06s2.22,2.93,3.06,2.61,2.71-2.86,3.45-3.34,9.31-4.45,10.16-5.87a9.79,9.79,0,0,0,.47-6.92c-.79-2-5.09-4.82-7-4.73s-5.64,4.51-6.43,5.2S13.74,5.5,13.74,5.5Z"/><path d="M18.51,10.2C19.89,8.63,21.67,6,25,5.59c3.9-.47,7.88,1.53,8.75,6.74.93,5.55-1.13,7.2-6.27,9.59-2.5,1.15-6,2.22-7.09,4.85-.78,1.88-2.56,2.12-3.44.36-1.22-2.48-7.67-5-10.27-7.16-4.16-3.44-4-11.46.29-14.65,3.74-2.75,9.4-1.57,11.29,3.88C18.37,9.64,18.48,10.1,18.51,10.2Zm0,15.24c4-2.64,8.37-4.18,11.73-6.52,3.21-2.67,2.81-6.54.5-9.45-1.88-2.36-6.47-2.21-8.49-.56a10.23,10.23,0,0,0-3.29,4.27c-.65,1.68-.07,1.38-.34,2.89-1.61-1.38-2.7-1.94-2.17-4.39.49-2.29-1.31-4.59-3.59-5.27-3.93-1.15-6.54,1.95-7.18,5C4.92,15,7,18.58,10.69,20.74,13.37,22.33,16.33,23.91,18.47,25.44Z"/></g></svg>