<svg xmlns="http://www.w3.org/2000/svg" viewBox="0 0 74.63 40.49"><defs><style>.cls-1{fill:#fff;}.cls-2{fill:#7c6d63;}</style></defs><title>MiniMountains</title><g id="MiniMountains"><polygon id="Snow" class="cls-1" points="43.69 17.28 50.13 9.14 57.78 18.08 55.96 20.89 52.78 22.15 50.89 20.95 47.02 20.67 44.41 21.26 43.69 17.28"/><polygon id="Snow-2" data-name="Snow" class="cls-1" points="16.54 13.25 21.68 5.57 29.74 16.49 29.11 18.08 24.92 16.49 22.44 17.38 18.57 17.1 17.17 15.35 16.54 13.25"/><polygon id="baseColor" class="cls-2" points="71.66 35.56 58.33 18.04 53.74 22.62 48.22 19.95 44.87 21.85 42.97 16.05 36.07 24.47 30.89 17.66 27.08 18.43 23.63 16.8 21.04 18.81 15.65 14.74 3.5 36.41 69.04 36.65 71.66 35.56"/><path id="Outline" d="M34.6,20c.65,1.55,1.48,1.44,2.54.37,4-4,8-8,11.91-12,.88-.89,1.72-1.2,2.65-.12,2.48,2.85,5.09,5.59,7.4,8.57,3.74,4.85,7.26,9.86,10.9,14.79.47.65,1.08,1.2,1.54,1.85s1.39,1.83,1.2,2.09a4,4,0,0,1-2.41,1.57c-4,.33-8,.4-12,.63-3.34.2-6.68.46-10,.8-.55,0-12.76-.72-17.78-.49-4.23.19-8.48,0-12.71,0-4.89.11-9.78.41-14.67.54a2.74,2.74,0,0,1-1.86-.79,1.89,1.89,0,0,1,.08-1.68q7.46-12.88,15-25.7c1.34-2.27,2.88-4.43,4.41-6.59.93-1.31,2-1,2.92.43C25.84,7.7,28,11,30.29,14.18,30.68,14.73,33.91,18.35,34.6,20Zm-18.66-4L5.1,35.34H42.37L30.09,18.47c-2.36,2.73-4.1.17-6.1-.78a4.74,4.74,0,0,0-.55.83c-.74,2-1.79,2.26-3.39.81C18.8,18.2,17.42,17.22,15.94,16.05Zm52.1,18L58,19.51c-.54.65-.93,1-1.24,1.49-2.8,4.08-2.41,3-6.61,1.14-2.07-.92-3.47-1.57-4.65.68-3.21-.52-.78-3.55-2.69-5l-5.25,5.89c2.28,3.36,4.67,6.89,7.08,10.4.17.25.44.58.69.61,3.7.35,7.41,1,11.09.88S64,34.65,68,34.09ZM45.33,20.66c.69-.94,1-1.91,2-2.06a3.12,3.12,0,0,1,2.13.18c1,.38,3,2.93,3.86,2.87,1.19-.09.92-2.45,1.91-3.21.29-.22,0-1.58-.33-2.18-3.55-5.7-3.91-4.6-8.81-1.1C45.11,15.89,44.6,19.69,45.33,20.66ZM21.64,7c-.75,1.15-1.27,2-1.87,2.84a28.08,28.08,0,0,0-2.05,2.62,2.08,2.08,0,0,0-.1,1.9,29.67,29.67,0,0,0,3.29,2.71c1.85-3.77,1.89-3.76,5.28-1.37a9.77,9.77,0,0,0,2.07.85l.3-.56Z"/></g></svg>