<svg xmlns="http://www.w3.org/2000/svg" viewBox="0 0 73.88 39.5"><defs><style>.cls-1{fill:#fff;}.cls-2{fill:#ad9f99;}.cls-3{fill:#333;}</style></defs><title>new_ThinMountains</title><g id="MiniThinMountains_copy" data-name="MiniThinMountains copy"><polygon id="Snow" class="cls-1" points="43.48 15.52 50.13 8.52 57.78 16.47 53.74 21.99 50.89 20.32 47.02 20.04 44.41 20.64 43.48 15.52"/><polygon id="Snow-2" data-name="Snow" class="cls-1" points="16.31 13.8 21.19 4.19 30.1 14.97 29.11 17.45 23.93 14.88 21 17.45 16.31 13.8"/><polygon id="baseColor" class="cls-2" points="71.66 34.94 57.89 16.83 53.74 21.99 48.22 19.33 44.87 21.23 42.97 15.42 35.5 22.63 30.08 16.47 27.08 17.8 23.67 15.38 21.04 18.18 15.83 13.8 3.5 35.78 69.04 36.02 71.66 34.94"/><path id="Outline" class="cls-3" d="M34.6,19.4c.65,1.55,1.48,1.44,2.54.37,4-4,8-8,11.91-12,.88-.89,1.72-1.2,2.65-.13,2.48,2.85,5.09,5.59,7.4,8.58C62.84,21.09,66.36,26.1,70,31c.47.64,1.08,1.19,1.54,1.84s1.39,1.84,1.2,2.09a4,4,0,0,1-2.41,1.57c-4,.34-8,.4-12,.64-3.34.2-6.67.24-10,.58-.56.06-12.78-.5-17.8-.27-4.23.19-8.48,0-12.71.05-4.89.1-9.78.4-14.67.53a2.7,2.7,0,0,1-1.86-.79,1.89,1.89,0,0,1,.08-1.68q7.46-12.89,15-25.7c1.34-2.27,2.88-4.43,4.41-6.59.93-1.31,2-1,2.92.44,2.08,3.33,4.24,6.62,6.53,9.82C30.68,14.11,33.91,17.73,34.6,19.4ZM16,14.54C12.41,21,7.39,29.22,3.79,35.63H42.71C38.42,29.74,34,22.74,29.92,17.19c-1.8,3.08-3.91-.33-5.92-1.28a4.68,4.68,0,0,0-.54.84c-.74,1.95-1.9,2.87-3.5,1.42C18.71,17,17.52,15.71,16,14.54ZM69.87,34.42c-3.34-4.85-8.78-11.83-12.2-16.79a14.08,14.08,0,0,0-1,2.29C53.82,24,54.2,22.69,50,20.83c-2.07-.91-3.36-.89-4.54,1.37-3.21-.53-.84-4-2.75-5.49-1.73,1.94-4.55,3.87-6.29,5.83,2.28,3.36,5.26,8.51,7.66,12a3.11,3.11,0,0,0,1.17.84,97.37,97.37,0,0,0,11.46,0C60.52,35.26,65.83,35,69.87,34.42ZM45.33,20c.69-.93,1-1.91,2-2.05a3.12,3.12,0,0,1,2.13.18c1,.37,3,2.92,3.86,2.86,1.19-.09,1.27-2.81,2.27-3.57.29-.22-.68-2.12-1-2.74-3.47-6.19-4-5.27-8.81-1.1C44.83,14.43,44.6,19.06,45.33,20ZM21.68,5c-.75,1.15-1.79,3.15-2.39,4a26.84,26.84,0,0,0-1.57,2.95c-.3.51-.42,1.56-.1,1.89a28.59,28.59,0,0,0,3.29,2.71c1.85-3.76,1.89-3.75,5.28-1.37a9.28,9.28,0,0,0,2.07.85c.1-.18.89-.64,1-.82C27,12.22,24.13,8.13,21.68,5Z"/></g></svg>