<svg xmlns="http://www.w3.org/2000/svg" viewBox="0 0 40.5 52.5"><defs><style>.cls-1{fill:#a1a597;}</style></defs><title>Tree</title><g id="Tree"><polygon id="BG-2" data-name="BG" class="cls-1" points="6.87 41.46 15.88 16.52 21.24 4.81 26.99 23.13 34.74 41.53 33.51 43.01 20.8 38.01 6.87 41.46"/><path id="Outline" d="M21,38.57c0,1.1,0,2.13.05,3.15,0,2.12,0,4.24.18,6.35a1.33,1.33,0,0,1-.52,1.31c-.47.35-.91.08-1.31-.22-.06,0-.09-.12-.2-.26.42-3.15-.08-6.37,0-9.82-.71.19-1.2.29-1.66.46-2,.79-4.06,1.62-6.11,2.4-.36.14-.79.11-1.16.23-1,.33-2,.7-3.1,1.08-.24-.23-.55-.54-.87-.83-.79-.7-.81-.82-.47-1.83.46-1.39.88-2.8,1.35-4.19C8,33.79,9,31.21,9.77,28.58a68.4,68.4,0,0,1,2.87-7.44c.78-1.77,1.43-3.6,2.21-5.38.6-1.34,1.32-2.63,2-3.95s1.3-2.73,1.87-4.12c.46-1.13.79-2.3,1.17-3.46a1,1,0,0,1,1-.74.91.91,0,0,1,1,.52,3.09,3.09,0,0,1,.63,1.72,2,2,0,0,0,.24.72,3.36,3.36,0,0,1,.28.65c.35,2.16,1.33,4.13,1.82,6.24.31,1.32.87,2.55,1.17,3.87a7.16,7.16,0,0,0,.83,1.66c.16.31.5.61.5.91,0,1.56.87,2.83,1.33,4.23.5,1.56,1.06,3.12,1.71,4.63.17.41.81,2.22,1,2.7.61,1.55,1.18,3.11,1.83,4.64.73,1.7,1.59,3.35,2.27,5.07.22.56.64,1.29-.21,1.9-.39.28-.35,1.16-1,1.11a5.18,5.18,0,0,1-1.36-.63c-.47-.22-.95-.41-1.43-.59a6.41,6.41,0,0,1-.9-.33,33.18,33.18,0,0,0-6.38-2.62C23,39.56,22.07,39.05,21,38.57Zm.21-10.2c-.63.2-1.09.31-1.52.49-1.48.64-3,1.25-4.41,2a23,23,0,0,0-3.11,2c-.54.4-1.3.4-2.2,1.06-.2,0-.46.64-.53.87-.66,2.06-1.12,4.09-1.82,6.38,1.78-.53,3.64-1.4,5.19-1.88,2-.61,4-1.24,6-1.87a7.09,7.09,0,0,0,1.48-.46,1.57,1.57,0,0,1,1.67.09c1.17.58,2.34,1.17,3.54,1.66,1.76.72,3.43,1.53,5.22,2.17.83.3,2.29.94,3.31,1.25-.29-.56-.82-2-1-2.4-.84-2.14-1.88-3.76-2.67-5.91a2.71,2.71,0,0,0-1.1-1.51c-.68-.39-1.41-.71-2.13-1-1.11-.52-2.24-1-3.35-1.54C22.85,29.26,21.94,28.76,21.18,28.37ZM10.53,31.64c1.93-.94,4.11-2.19,5.88-3.06a14.51,14.51,0,0,0,2.72-1.47,2.63,2.63,0,0,1,2.76-.3c2.39.92,5,2.35,7.45,3.45-.12-.46-.31-1.15-.43-1.47-.5-1.33-1.1-3-1.63-4.28-.62-1.54-1.34-2.71-2-4.23a1.09,1.09,0,0,0-.41-.54c-1.23-.53-2.48-1-3.71-1.53a2,2,0,0,0-2,.24,21,21,0,0,1-3.77,1.75c-.22,0-.9,1.07-1,1.32-.51,1.32-1.3,2.76-1.82,4.08-.44,1.13-.6,2.13-1,3.26A25.48,25.48,0,0,0,10.53,31.64ZM15.88,18.5c1.31-.78,2.44-1.42,3.53-2.13a1.48,1.48,0,0,1,1.59.05c.93.44,1.85.62,2.8,1a2.93,2.93,0,0,0,.47.12c-.22-.92-.42-1.78-.61-2.65a5.07,5.07,0,0,0-.11-.68c-.44-1.26-.9-2.52-1.35-3.78-.18-.52-.55-1.07-.49-1.56.09-.81-.45-1.34-.48-2.12C20.48,7.52,16.08,17.13,15.88,18.5Z"/></g></svg>